<?xml version="1.0" standalone="no"?>
<!DOCTYPE svg PUBLIC "-//W3C//DTD SVG 20010904//EN"
 "http://www.w3.org/TR/2001/REC-SVG-20010904/DTD/svg10.dtd">
<svg version="1.0" xmlns="http://www.w3.org/2000/svg"
 width="643.000000pt" height="643.000000pt" viewBox="0 0 643.000000 643.000000"
 preserveAspectRatio="xMidYMid meet">
<metadata>
Created by potrace 1.11, written by Peter Selinger 2001-2013
</metadata>
<g transform="translate(0.000000,643.000000) scale(0.100000,-0.100000)"
fill="#000000" stroke="none">
<path d="M2978 6425 c-1 -1 -38 -6 -80 -9 -43 -3 -83 -8 -90 -11 -7 -2 -38 -6
-68 -10 -30 -3 -100 -15 -155 -26 -791 -159 -1484 -601 -1965 -1254 -36 -49
-77 -108 -90 -130 -13 -22 -27 -42 -31 -45 -3 -3 -37 -59 -74 -125 -183 -321
-292 -618 -371 -1000 -2 -10 -6 -35 -9 -55 -3 -20 -7 -45 -9 -56 -6 -29 -17
-114 -26 -204 -8 -82 -6 -551 4 -615 3 -22 8 -60 11 -85 31 -255 123 -596 230
-845 226 -526 580 -977 1035 -1316 80 -60 256 -179 264 -179 3 0 22 -12 43
-26 67 -46 354 -181 493 -233 115 -42 304 -101 375 -116 84 -17 238 -46 275
-51 25 -3 53 -8 63 -10 139 -26 684 -26 828 1 9 2 40 6 70 10 30 4 95 15 144
26 50 11 101 22 115 25 325 69 751 255 1040 453 85 58 253 185 298 224 344
304 571 590 767 962 79 151 198 433 220 525 3 8 20 74 39 145 19 72 38 146 41
165 3 19 8 46 10 60 13 63 28 151 30 175 1 11 6 56 11 100 16 148 10 625 -10
732 -2 10 -7 41 -10 68 -9 68 -50 264 -74 355 -250 940 -937 1734 -1834 2119
-263 113 -578 201 -828 231 -52 6 -106 14 -120 17 -27 6 -556 14 -562 8z
m2375 -1684 c29 -15 68 -37 87 -48 48 -28 96 -42 155 -45 55 -3 64 -18 39 -68
-30 -61 -103 -70 -214 -25 l-81 34 6 -40 c3 -21 8 -58 11 -81 3 -24 7 -54 9
-68 2 -14 7 -45 10 -69 6 -48 11 -79 27 -166 16 -92 16 -115 -4 -190 -35 -127
-117 -243 -208 -292 -136 -74 -311 44 -293 196 17 136 219 276 404 280 l36 1
-28 93 c-26 91 -31 112 -47 207 -19 117 0 310 30 310 5 0 33 -13 61 -29z
m-3168 -27 c12 -8 44 -56 70 -107 143 -273 317 -496 531 -678 79 -68 289 -195
352 -214 19 -5 40 11 140 113 64 65 153 148 197 184 79 64 210 158 220 158 3
0 22 10 43 23 96 59 302 136 409 152 21 3 50 8 63 11 14 3 68 5 120 5 192 0
329 -74 384 -206 20 -47 28 -148 16 -202 -5 -21 -11 -51 -14 -67 -8 -43 -71
-172 -107 -217 -146 -185 -386 -299 -709 -338 -94 -11 -329 -11 -401 0 -30 5
-70 11 -89 14 -19 3 -59 11 -89 17 l-54 12 -35 -40 c-19 -21 -106 -131 -193
-244 -87 -113 -162 -210 -166 -215 -111 -143 -219 -271 -296 -351 -27 -29 -45
-54 -40 -57 17 -11 221 -86 313 -115 89 -28 223 -65 280 -76 14 -2 48 -9 77
-15 214 -42 482 -47 693 -11 30 5 71 12 90 15 218 36 634 197 865 335 17 9 50
29 75 42 25 14 61 35 81 47 76 45 159 18 199 -65 41 -83 15 -143 -86 -204
-350 -214 -813 -399 -1110 -444 -22 -3 -50 -8 -64 -11 -64 -12 -91 -16 -170
-22 -254 -22 -548 3 -790 68 -41 11 -85 22 -97 25 -52 10 -388 128 -470 165
-24 10 -48 19 -53 19 -6 0 -24 7 -41 16 -37 18 -54 14 -99 -29 -19 -17 -69
-59 -110 -91 -41 -33 -77 -62 -80 -66 -3 -3 -59 -51 -125 -106 -274 -231 -394
-288 -600 -287 -301 0 -518 158 -530 385 -13 266 207 513 554 622 191 60 350
63 606 12 11 -3 74 -21 140 -41 66 -21 127 -39 136 -42 19 -5 159 139 291 300
103 124 105 127 273 347 66 85 122 157 125 160 14 11 62 81 59 84 -2 2 -36 20
-76 40 -201 100 -450 309 -619 520 -143 177 -314 470 -314 536 0 18 11 52 25
75 43 75 135 102 200 59z"/>
<path d="M4233 4075 c-126 -28 -281 -100 -428 -199 -119 -79 -315 -249 -303
-262 9 -8 251 -9 323 0 281 33 398 79 526 205 77 76 98 109 105 165 11 82 -87
122 -223 91z"/>
<path d="M1575 2418 c-95 -9 -126 -15 -188 -38 -208 -79 -340 -238 -285 -345
34 -65 79 -86 191 -90 155 -6 193 16 635 383 50 42 49 44 -63 66 -122 24 -213
32 -290 24z"/>
</g>
</svg>
