<svg id="buildings" xmlns="http://www.w3.org/2000/svg" viewBox="0 0 26.26 67.56"><defs><style>.cls-1{opacity:0.2;}.cls-2{fill:#03475a;}</style></defs><title>1</title><g class="cls-1"><path class="cls-2" d="M339.78,1195.89q3.48-2,7.42.58,1.51,0.93,1.91,4.29a98.61,98.61,0,0,1,.06,12.76q-0.7,18.56-.81,22.5L348,1248l3.6,2.55a17.39,17.39,0,0,1,4.76,4.76q1.74,2.67.81,3.83-0.7.93-5.92,1.86a95.5,95.5,0,0,1-10.9,1.28l-6.73.35v-8.24q3.48-1.62,6.84-3.25v-16.47q-0.12-16.59-.58-20.3l-0.58-3.71-2.78.35a7.83,7.83,0,0,1-2.49.06,3.56,3.56,0,0,1-1.68-1.22,3.43,3.43,0,0,1-1-3.13q0.46-1.85,3.6-5.86T339.78,1195.89Z" transform="translate(-331.24 -1195.03)"/></g></svg>