<svg id="buildings" xmlns="http://www.w3.org/2000/svg" viewBox="0 0 34.87 68.54"><defs><style>.cls-1{opacity:0.2;}.cls-2{fill:#03475a;}</style></defs><title>2</title><g class="cls-1"><path class="cls-2" d="M666.86,1200.32q0-3.94-.64-5t-3.54-1a7.76,7.76,0,0,0-5.22,2.32,7.47,7.47,0,0,1-3.83,2.15q-1.63.17-5.1-1.33a10.08,10.08,0,0,1-2.9-1.51,2.53,2.53,0,0,1-.58-1.86q0-2,3.13-4.87a25.6,25.6,0,0,1,4.58-3.65,18.59,18.59,0,0,1,4.58-1.8,24.86,24.86,0,0,1,7.66-.29,20.53,20.53,0,0,1,7.08,1.57,14.1,14.1,0,0,1,4.29,3.77,18,18,0,0,1,3,5.28q1.74,5.34-2.2,16.76a103.33,103.33,0,0,1-11.48,22.91q-4.29,6.73-3.94,7.77a1.92,1.92,0,0,0,1.91.75q1.45-.06,8.87-1.22,5.1-.93,6.26-0.17t0.93,4.58q-0.23,3.6-.93,4.29t-9,1.33q-8.41.76-15.25,0.75t-7.89-1.68q-1.16-1.8,2.09-7.25,0.46-.81,1.39-2.38l1.68-2.84q0.75-1.27,1.22-2a29.22,29.22,0,0,0,2.2-4.64,80.53,80.53,0,0,1,3.71-7.89Q666.86,1207.51,666.86,1200.32Z" transform="translate(-645.05 -1183.29)"/></g></svg>