<svg id="buildings" xmlns="http://www.w3.org/2000/svg" viewBox="0 0 33.54 68.22"><defs><style>.cls-1{opacity:0.2;}.cls-2{fill:#03475a;}</style></defs><title>3</title><g class="cls-1"><path class="cls-2" d="M972.53,1191.19q2.2-.58,8.82-0.35a39.14,39.14,0,0,1,6,.46,9.86,9.86,0,0,1,3.36,1.51,14.75,14.75,0,0,1,4,4.35,19.27,19.27,0,0,1,2.61,5.74,12.93,12.93,0,0,1-2.44,11.14q-2.32,3-2.26,4.93t2.49,3.54a15.88,15.88,0,0,1,6.26,8.47,15.53,15.53,0,0,1,.23,10.56,35.48,35.48,0,0,1-4.29,7.95q-3.37,5-5.34,6.32a18.72,18.72,0,0,1-11.19,3.19q-6.56-.06-10.15-3.54a5.3,5.3,0,0,1-1.68-3.25,6.31,6.31,0,0,1,.64-3.83q0.81-1.39,0-3.94t-0.41-2.9q0.29-.35,5,2a21.36,21.36,0,0,0,4.58,2.09,19.38,19.38,0,0,0,4.7.23l4.87-.23,1.86-3.48a12.16,12.16,0,0,0,1.51-3.6,14.75,14.75,0,0,0-.46-3.83,10.2,10.2,0,0,0-2.32-5.16,17.89,17.89,0,0,0-5.8-3.42,14.53,14.53,0,0,1-3.19-1.68,4.66,4.66,0,0,1-1.22-2.38,5.22,5.22,0,0,1-.12-3.25,3.47,3.47,0,0,1,2.32-1.62q1.28-.23,4.29-3.13a10.85,10.85,0,0,0,2.38-2.78,9,9,0,0,0,.41-3.25,8.56,8.56,0,0,0-.41-3.13,10,10,0,0,0-1.8-2.44,7.64,7.64,0,0,0-2.44-1.74,9,9,0,0,0-3.13.12,23.27,23.27,0,0,1-6.38.41,5.26,5.26,0,0,1-3.48-1.8,5.17,5.17,0,0,1-1.33-4.81A4.78,4.78,0,0,1,972.53,1191.19Z" transform="translate(-968.92 -1190.78)"/></g></svg>