<svg id="buildings" xmlns="http://www.w3.org/2000/svg" viewBox="0 0 42.46 64.84"><defs><style>.cls-1{opacity:0.2;}.cls-2{fill:#03475a;}</style></defs><title>4</title><g class="cls-1"><path class="cls-2" d="M352.61,1672.23a7.22,7.22,0,0,1,4.29-1q2.78,0.06,3.6,1.1t0.58,5.68q-0.12,4.06-.23,18.56-0.12,8.7.06,11.31t0.87,3q2.09,1,3.48,1.62,2.55,1.16,2.32,2.84t-3.6,5.16a23.36,23.36,0,0,0-3,3.77,6.68,6.68,0,0,0-.58,3.07,43.08,43.08,0,0,1-.35,5.34,3.57,3.57,0,0,1-.93,2.15,12.7,12.7,0,0,1-3.48,1q-4.06.7-5-.35t-1.22-6.09q-0.23-5-.93-5.86t-9-.93a59.05,59.05,0,0,1-10.09-.58q-2.9-.58-3.71-2.2a3.14,3.14,0,0,1-.41-2.09,23.16,23.16,0,0,1,1.45-4.06,53.71,53.71,0,0,0,2.44-6,56.79,56.79,0,0,1,4.23-7q3.77-5.74,8.64-12.82t6.61-10.09Q351.22,1673.28,352.61,1672.23Zm-1,22.85q0.23-3.36.17-4.41c0-.7-0.29-1-0.75-1q-1.28,0-4.81,4.7t-4.35,7.6a23.35,23.35,0,0,1-2.67,5.8q-2.09,3.25-1.39,4.12t5.68,0.87q5.57,0,6.26-.81T351.56,1695.09Z" transform="translate(-325.13 -1671.25)"/></g></svg>