<svg id="buildings" xmlns="http://www.w3.org/2000/svg" viewBox="0 0 34.92 71.11"><defs><style>.cls-1{opacity:0.2;}.cls-2{fill:#03475a;}</style></defs><title>5</title><g class="cls-1"><path class="cls-2" d="M669.81,1669.92a9,9,0,0,1,2.15-.23q1.22,0,2.61.12t2,0.12q1,0,.7,1.62a3.16,3.16,0,0,0,1.39,3q1.74,1.39,1,2.44t-6.61,3.25a48.53,48.53,0,0,1-9.63,2.55q-3.71.35-4.52,1.39-0.7.81-.41,3.94a15.39,15.39,0,0,0,1.22,5.1,3.63,3.63,0,0,0,1.39,1.74,11.8,11.8,0,0,0,3.13.93,20.15,20.15,0,0,1,11.25,6.26,25.88,25.88,0,0,1,5.92,12.88,16.81,16.81,0,0,1-.35,8,36.13,36.13,0,0,1-3.71,9.4,19.93,19.93,0,0,1-5.1,6.38,12.48,12.48,0,0,1-3.25,1.62,22.85,22.85,0,0,1-5,.35,25.82,25.82,0,0,1-5-.35,13.86,13.86,0,0,1-3.77-1.62q-9.51-5.1-4.18-11.95,2-2.55,2-3.36,0-2.32,4.41,1.28,3.94,3.48,6.44,3.83t4.81-2.2a14.08,14.08,0,0,0,2.78-3.83,10.34,10.34,0,0,0,.7-4.06,13.33,13.33,0,0,0-3.25-9.28,10.5,10.5,0,0,0-4.35-3.13,22.75,22.75,0,0,0-6.9-.58q-6,.12-6.73-0.58-1.16-1.16-2.32-20.3-0.47-7.31-1.28-8.24a1.35,1.35,0,0,1-.46-1.1,2.88,2.88,0,0,1,.93-1.1q1.16-1,6.61-2.32a48.68,48.68,0,0,1,9.51-1.39A30.33,30.33,0,0,0,669.81,1669.92Z" transform="translate(-646.83 -1669.68)"/></g></svg>