<svg id="baloons" xmlns="http://www.w3.org/2000/svg" viewBox="0 0 137.71 220.17"><defs><style>.cls-1{fill:#74c15e;}.cls-2{fill:#fff;opacity:0.58;}.cls-3,.cls-5{fill:none;stroke:#03475a;stroke-miterlimit:10;}.cls-3{stroke-width:0.68px;}.cls-4{fill:#ef365a;}.cls-5{stroke-width:0.37px;}</style></defs><title>balloons</title><ellipse class="cls-1" cx="31.74" cy="34.36" rx="31.74" ry="34.36"/><path class="cls-2" d="M620,114.64S633.3,125,631.39,132H618.65s-7.38-14-10.92-10.47l10.4-6.83" transform="translate(-575.99 -103.54)"/><path class="cls-3" d="M607.73,172.26s36.33,77.34-15.92,89.34,55.74,61.8,55.74,61.8" transform="translate(-575.99 -103.54)"/><ellipse class="cls-4" cx="115.58" cy="67.13" rx="17.58" ry="19.03"/><path class="cls-2" d="M698.39,157.59s7.34,6.41,6.28,9.41h-7.06s-4.09-7.55-6-5.59l5.76-3.78" transform="translate(-575.99 -103.54)"/><path class="cls-5" d="M691.57,189.7s20.12,42.83-8.82,49.48,30.87,34.22,30.87,34.22" transform="translate(-575.99 -103.54)"/></svg>