<svg id="buildings" xmlns="http://www.w3.org/2000/svg" viewBox="0 0 347.83 74.34"><defs><style>.cls-1{opacity:0.2;}.cls-2{fill:#03475a;fill-rule:evenodd;}</style></defs><title>bg_logo</title><g class="cls-1"><path class="cls-2" d="M543.61,849.17c0.13-1.9.07-4.44-2.14-5a4,4,0,0,0-1.79-.24,36.06,36.06,0,0,0-5.38.45c-0.37,0-.84,1.2-0.87,1.87-0.81,15.85-1.56,31.7-2.28,46.62,0.07,0.84.13,1.6,0.18,2.31s-0.1,1.26-.14,1.89c-0.13,1.9-.07,4.44,2.14,5a4,4,0,0,0,1.79.24,36.07,36.07,0,0,0,5.38-.45c0.37,0,.84-1.2.87-1.87,0.81-15.85,1.56-31.7,2.28-46.62-0.07-.84-0.13-1.6-0.18-2.31S543.57,849.8,543.61,849.17Z" transform="translate(-485.4 -830.08)"/><path class="cls-2" d="M617.85,896.67l-2.34-.29-3.18-.15h2.12a12.58,12.58,0,0,1-.36-1.32c-0.6-2.71-1.21-5.42-1.82-8.13l4,0.48c1.21,0.14,2.84.07,3.16-2.28a35.07,35.07,0,0,0-.15-7,1.5,1.5,0,0,0-1.16-.87l-8.21-.66q-1.41-6.2-2.85-12.38c-1-4.24-2.46-8.37-3.25-12.64-0.39-2.1-1-3.57-3.07-4s-4.52-1.18-6,1.45c-2.07,3.64-4.21,7.25-6.25,10.91-5.83,10.44-8.94,22-13.28,33l-2,3.67-1.41.17c-1.41.16-2.22,0.62-2.12,1.74s0.05,2.44.1,3.66c0.06,1.61,1.41,2.43,3.68,2.36,1.71-.06,3.42-0.06,5.13-0.09s3.42,0,5.13.09c2.28,0.08,3.62-.75,3.68-2.36,0-1.22,0-2.44.1-3.66s-0.72-1.58-2.12-1.74l-2.34-.29-0.46,0,0.05-.13h0.64a131,131,0,0,1,3.44-12.78c3.23,0.48,6.47.85,9.71,1.27l7.69,1,2.33,10.49h3.33l-3.18.15-2.34.29c-1.41.16-2.22,0.62-2.12,1.74s0.05,2.44.1,3.66c0.06,1.61,1.41,2.43,3.68,2.36,1.71-.06,3.42-0.06,5.13-0.09s3.42,0,5.13.09c2.28,0.08,3.62-.75,3.68-2.36,0-1.22,0-2.44.1-3.66S619.26,896.83,617.85,896.67Zm-28.06-21.81c2.23-5.82,4.74-11.5,7.36-17.15l0.77,0,4,18.06Z" transform="translate(-485.4 -830.08)"/><path class="cls-2" d="M706.14,898.41c0.11,1.22.05,2.44,0.1,3.66,0.06,1.61,1.41,2.43,3.68,2.36,1.71-.06,3.42-0.06,5.13-0.09s3.42,0,5.13.09c2.28,0.08,3.62-.75,3.68-2.36,0-1.22,0-2.44.1-3.66s-0.72-1.58-2.12-1.74l-2.34-.29-3.18-.15h3.33L722,885.74l7.69-1c3.24-.42,6.48-0.79,9.71-1.27a131,131,0,0,1,3.44,12.78h0.64l0.05,0.13-0.46,0-2.34.29c-1.41.16-2.22,0.62-2.12,1.74s0.05,2.44.1,3.66c0.06,1.61,1.41,2.43,3.68,2.36,1.71-.06,3.42-0.06,5.13-0.09s3.42,0,5.13.09c2.28,0.08,3.62-.75,3.68-2.36,0-1.22,0-2.44.1-3.66s-0.72-1.58-2.12-1.74l-1.41-.17-2-3.67c-4.34-11-7.45-22.59-13.28-33-2-3.66-4.18-7.27-6.25-10.91-1.5-2.63-3.86-1.87-6-1.45s-2.68,1.87-3.07,4c-0.79,4.27-2.26,8.4-3.25,12.64s-1.91,8.25-2.85,12.38l-8.21.66a1.5,1.5,0,0,0-1.16.87,35.07,35.07,0,0,0-.15,7c0.33,2.35,2,2.42,3.16,2.28l4-.48c-0.61,2.71-1.22,5.42-1.82,8.13a12.58,12.58,0,0,1-.36,1.32h2.12l-3.18.15-2.34.29C706.86,896.83,706,897.29,706.14,898.41Zm18-22.61,4-18.06,0.77,0c2.62,5.64,5.13,11.33,7.36,17.15Z" transform="translate(-485.4 -830.08)"/><path class="cls-2" d="M528,838.39l3.18-.15,2.34-.29c1.41-.16,2.22-0.62,2.12-1.74s-0.05-2.44-.1-3.66c-0.06-1.61-1.41-2.43-3.68-2.36-1.71.06-3.42,0.06-5.13,0.09s-3.42,0-5.13-.09c-2.28-.08-3.62.75-3.68,2.36,0,1.22,0,2.44-.1,3.66s0.72,1.58,2.12,1.74l2.34,0.29,3.18,0.15h-3.42c-2.92,13.65-8.11,26.18-13.84,38.52l-0.77,0-8.56-38.49h-3.33l3.18-.15,2.34-.29c1.41-.16,2.22-0.62,2.12-1.74s-0.05-2.44-.1-3.66c-0.06-1.61-1.41-2.43-3.68-2.36-1.71.06-3.42,0.06-5.13,0.09s-3.42,0-5.13-.09c-2.28-.08-3.62.75-3.68,2.36,0,1.22,0,2.44-.1,3.66s0.72,1.58,2.12,1.74l2.34,0.29,3.18,0.15h-2.12a12.57,12.57,0,0,1,.36,1.32q3.4,15.46,7,30.87c1,4.24,2.46,8.37,3.25,12.64,0.39,2.1,1,3.57,3.07,4s4.52,1.18,6-1.45c2.07-3.64,4.21-7.25,6.25-10.91,6.12-11,9.24-23.13,13.93-34.67a10.66,10.66,0,0,1,.87-1.76H528Z" transform="translate(-485.4 -830.08)"/><path class="cls-2" d="M588.28,838.39h-3.66l3.18-.15,2.34-.29c1.41-.16,2.22-0.62,2.12-1.74s-0.05-2.44-.1-3.66c-0.06-1.61-1.41-2.43-3.68-2.36-1.71.06-3.42,0.06-5.13,0.09s-3.42,0-5.13-.09c-2.28-.08-3.62.75-3.68,2.36,0,1.22,0,2.44-.1,3.66s0.72,1.58,2.12,1.74l2.34,0.29,3.18,0.15h-3.42c-2.92,13.65-8.11,26.18-13.84,38.52l-0.77,0-8.56-38.49h-3.33l3.18-.15,2.34-.29c1.41-.16,2.22-0.62,2.12-1.74s-0.05-2.44-.1-3.66c-0.06-1.61-1.41-2.43-3.68-2.36-1.71.06-3.42,0.06-5.13,0.09s-3.42,0-5.13-.09c-2.28-.08-3.62.75-3.68,2.36,0,1.22,0,2.44-.1,3.66s0.72,1.58,2.12,1.74l2.34,0.29,3.18,0.15h-2.12a12.58,12.58,0,0,1,.36,1.32q3.4,15.46,7,30.87c1,4.24,2.46,8.37,3.25,12.64,0.39,2.1,1,3.57,3.07,4s4.52,1.18,6-1.45c2.07-3.64,4.21-7.25,6.25-10.91,6.12-11,9.24-23.13,13.93-34.67A10.66,10.66,0,0,1,588.28,838.39Z" transform="translate(-485.4 -830.08)"/><path class="cls-2" d="M833.22,837.28c-0.14-2.75-.66-3.56-3.18-3.86-3.74-.45-7.49-0.77-11.23-1.15-7.2-.73-14.4-1.52-21.6-2.15-1.32-.12-3.09-0.06-3.44,1.93a23.13,23.13,0,0,0,.17,5.95,1.63,1.63,0,0,0,1.27.74l10.88,0.68c-0.75,12.48-1.45,24.92-2.12,36.67,0.07,0.71.13,1.35,0.18,2s-0.1,1.07-.14,1.6c-0.13,1.61-.07,3.76,2.14,4.26a4.69,4.69,0,0,0,1.79.21,42.49,42.49,0,0,0,5.38-.38,2.06,2.06,0,0,0,.87-1.58c0.81-13.41,1.56-26.83,2.28-39.46-0.07-.71-0.13-1.35-0.18-2l0.06-.7,10.46,0.63c2-.22,3.36-0.28,4.71-0.53S833.31,839,833.22,837.28Z" transform="translate(-485.4 -830.08)"/><path class="cls-2" d="M829.74,880.24h0c-0.83.53-1.93,1.25-3.07,2.08-0.87.55-1.69,1-2.48,1.49-9.74,4.7-20.24,2.64-23.61,1.77a51.09,51.09,0,0,1-30-22.17c2.75,0,5.51.07,8.25-.08,5-.28,8.88-2.45,10.23-7.67,0.94-3.65,2.24-7.33,2.35-11,0.25-8.34-.76-10.78-6.35-13a18.82,18.82,0,0,0-2.14-.71,19.12,19.12,0,0,0-6-.65c-6.6.38-13.17,1.24-19.74,2-1.87.22-3.06,1.11-2.46,3.42a13.2,13.2,0,0,1,0,3.76c-0.28,6.61-.56,13.21-0.88,19.81,0,0.07.06,0.15,0.09,0.22l-0.2,20.35h-0.68c-2.27-.07-3.62.69-3.68,2.19,0,1.13,0,2.27-.1,3.39s0.72,1.46,2.12,1.61l2.33,0.27,4.42,0.19h0l4.42-.19L765,887c1.4-.15,2.22-0.58,2.12-1.61s-0.05-2.26-.1-3.39c-0.06-1.49-1.4-2.26-3.68-2.19l-1.41,0V869.63c1.24,1,2.46,2,3.64,3,4.23,3.7,8.22,7.71,12.64,11.15a65.1,65.1,0,0,0,12.62,8.17,43.92,43.92,0,0,0,21.66,3.65c6.77-.5,12.61-2.62,16.52-8.26h0s3.66-4.83,2.21-8C831.21,879.35,830.62,879.68,829.74,880.24Zm-66-25.23c0-4.84-.09-9.76.39-14.56,1.43-.57,3.42-0.32,4.8-0.34,2.43,0,5-.17,7.47,0h0c1.67,0.3,3,.58,3.73,2,1.19,3.86.49,7.66-1.09,11.25a3.68,3.68,0,0,1-2.36,2c-0.7.09-1.4,0.15-2.1,0.23C771,855.93,766.07,855.88,763.72,855Z" transform="translate(-485.4 -830.08)"/><path class="cls-2" d="M643.44,879.06c-0.88.71-1.81,1.79-.57,2.81a3.52,3.52,0,0,0,2,.28,7.66,7.66,0,0,0,3.22-2c0.77-.64,1.55-1.26,2.33-1.9C648,877.57,645.52,877.38,643.44,879.06Z" transform="translate(-485.4 -830.08)"/><path class="cls-2" d="M668.62,866.58a8.65,8.65,0,0,0,2.58-.77c0.64-.33,2.71-2,2.13-3-0.74-1.3-4.11.32-5.07,0.91a21.63,21.63,0,0,0-3.74,2.94A14.71,14.71,0,0,0,668.62,866.58Z" transform="translate(-485.4 -830.08)"/><path class="cls-2" d="M661.94,840.68a29.74,29.74,0,1,0,29.74,29.74A29.74,29.74,0,0,0,661.94,840.68Zm18,36.92a29.81,29.81,0,0,1-13.22,4.64c-4.34.31-8.42-.93-12.4-2.54l-0.94-.38c-0.93.77-1.87,1.52-2.8,2.31a13.82,13.82,0,0,1-4.38,3c-2.58.85-6.84-.28-6.76-3.61s3.69-5.43,6.62-5.85a13.76,13.76,0,0,1,6.77,1.06l0.29-.27a87.2,87.2,0,0,0,6.57-8,20.1,20.1,0,0,1-9.22-9.55c-0.76-1.57,1.58-2.95,2.35-1.37,1.82,3.74,4.72,7.23,8.61,8.84,2.65-3,5.67-5.44,9.68-6,3.13-.45,5.71,1,4.69,4.46-1,3.34-4.33,4.65-7.49,5a15.8,15.8,0,0,1-5.9-.4c-2.28,2.68-4.21,5.65-6.65,8.19l-0.17.17h0a25.07,25.07,0,0,0,10.87,2.23,26.76,26.76,0,0,0,12.08-4.29A1.36,1.36,0,0,1,679.93,877.6Zm4-19.41a1.55,1.55,0,0,1-1.2,0,9.34,9.34,0,0,1-.87-0.38l-0.26-.12c0,0.52.55,3.89,0.55,3.89a2.08,2.08,0,0,1,.11,1.18,3.31,3.31,0,0,1-.18.82,4.56,4.56,0,0,1-.83,1.58,3.06,3.06,0,0,1-.67.66,1.87,1.87,0,1,1-2.44-2.83,2.86,2.86,0,0,1,.61-0.52,4.12,4.12,0,0,1,1.11-.53,5.13,5.13,0,0,1,.68-0.22,4,4,0,0,1,.67,0,2.22,2.22,0,0,1,.33,0c-0.12-.43-0.24-0.83-0.35-1.23a11.64,11.64,0,0,1-.4-2.1h0a4.73,4.73,0,0,1,.27-2.43s0.44,0.19,1,.53l0.57,0.34a2.86,2.86,0,0,0,1.43.33h0.18a0.19,0.19,0,0,1,.18.21A1,1,0,0,1,684,858.19Z" transform="translate(-485.4 -830.08)"/></g></svg>