<svg id="buildings" xmlns="http://www.w3.org/2000/svg" viewBox="0 0 1321.66 317.02"><defs><style>.cls-1{fill:#7fd5e9;}.cls-2{fill:#197d9a;}</style></defs><title>city</title><polygon class="cls-1" points="1304.06 279.4 1304.06 283.58 1297.13 283.58 1297.13 272.23 1290.21 272.23 1290.21 257.89 1264.43 257.89 1264.43 266.85 1259.81 266.85 1259.81 274.62 1255.19 274.62 1255.19 236.38 1244.42 236.38 1244.42 242.36 1227.49 242.36 1227.49 250.72 1222.1 250.72 1222.1 238.18 1195.94 238.18 1195.94 258.49 1182.86 258.49 1182.86 225.63 1175.93 225.63 1175.93 215.47 1171.32 215.47 1171.32 225.63 1156.7 225.63 1156.7 219.06 1152.08 219.06 1152.08 228.62 1146.69 228.62 1146.69 266.25 1140.54 266.25 1140.54 225.63 1135.92 225.63 1135.92 218.46 1129.77 218.46 1129.77 226.83 1126.69 226.83 1126.69 249.53 1123.99 249.53 1123.99 278.8 1120.15 278.8 1120.15 262.67 1115.53 262.67 1115.53 149.77 1111.68 149.77 1111.68 137.23 1077.83 137.23 1077.83 150.36 1075.13 150.36 1075.13 104.96 1061.67 104.96 1061.67 97.8 1052.43 97.8 1052.43 106.76 1048.2 106.76 1048.2 197.55 1040.12 197.55 1040.12 161.72 1037.04 161.72 1037.04 136.62 1035.12 133.64 1035.12 88.24 1030.5 88.24 1030.5 66.73 1015.11 66.73 1015.11 85.25 1011.26 85.25 1011.26 93.62 1007.8 93.62 1007.8 142.6 1002.8 142.6 1002.8 120.5 965.09 120.5 965.09 149.17 955.48 149.17 955.48 143.79 948.94 143.79 948.94 152.16 936.24 152.16 936.24 138.42 925.85 138.42 925.85 128.26 918.54 128.26 918.54 136.03 896.99 136.03 896.99 228.02 885.84 228.02 885.84 237.58 880.07 237.58 880.07 246.24 865.06 246.24 865.06 266.85 861.6 266.85 861.6 185.61 830.05 185.61 830.05 200.54 811.58 200.54 811.58 252.51 799.65 252.51 799.65 246.24 791.19 246.24 791.19 236.98 768.1 236.98 768.1 246.24 756.18 246.24 756.18 253.71 751.56 253.71 751.56 179.04 710.78 179.04 710.78 260.28 700.77 260.28 700.77 228.02 683.84 228.02 683.84 267.45 673.16 267.45 673.16 279.4 669.53 279.4 669.53 283.58 662.6 283.58 662.6 272.23 655.68 272.23 655.68 257.89 629.9 257.89 629.9 266.85 625.28 266.85 625.28 274.62 620.67 274.62 620.67 236.38 609.89 236.38 609.89 242.36 592.96 242.36 592.96 250.72 587.58 250.72 587.58 238.18 561.41 238.18 561.41 258.49 548.33 258.49 548.33 225.63 541.41 225.63 541.41 215.47 536.79 215.47 536.79 225.63 522.17 225.63 522.17 219.06 517.55 219.06 517.55 228.62 512.17 228.62 512.17 266.25 506.01 266.25 506.01 225.63 501.39 225.63 501.39 218.46 495.24 218.46 495.24 226.83 492.16 226.83 492.16 249.53 489.47 249.53 489.47 278.8 485.62 278.8 485.62 262.67 481 262.67 481 149.77 477.15 149.77 477.15 137.23 443.3 137.23 443.3 150.36 440.61 150.36 440.61 104.96 427.14 104.96 427.14 97.8 417.9 97.8 417.9 106.76 413.67 106.76 413.67 197.55 405.59 197.55 405.59 161.72 402.51 161.72 402.51 136.62 400.59 133.64 400.59 88.24 395.98 88.24 395.98 66.73 380.58 66.73 380.58 85.25 376.74 85.25 376.74 93.62 373.27 93.62 373.27 142.6 368.27 142.6 368.27 120.5 330.57 120.5 330.57 149.17 320.95 149.17 320.95 143.79 314.41 143.79 314.41 152.16 301.71 152.16 301.71 138.42 291.32 138.42 291.32 128.26 284.01 128.26 284.01 136.03 262.47 136.03 262.47 228.02 251.31 228.02 251.31 237.58 245.54 237.58 245.54 246.24 230.53 246.24 230.53 266.85 227.07 266.85 227.07 185.61 195.52 185.61 195.52 200.54 177.05 200.54 177.05 252.51 165.13 252.51 165.13 246.24 156.66 246.24 156.66 236.98 133.58 236.98 133.58 246.24 121.65 246.24 121.65 253.71 117.03 253.71 117.03 179.04 76.25 179.04 76.25 260.28 66.25 260.28 66.25 228.02 49.32 228.02 49.32 267.45 38.63 267.45 38.63 313.45 673.16 313.45 684.92 313.45 1319.44 313.45 1319.44 279.4 1304.06 279.4"/><polygon class="cls-2" points="1312.82 194.62 1312.82 166.81 1297.04 151.06 1285.91 165.89 1285.91 227.06 1269.21 227.06 1269.21 195.54 1246.94 195.54 1246.94 207.59 1228.38 207.59 1228.38 217.78 1215.4 217.78 1215.4 201.1 1197.77 201.1 1197.77 229.83 1164.37 229.83 1164.37 211.3 1121.69 211.3 1121.69 196.47 1101.28 196.47 1101.28 220.57 1092 220.57 1092 78.77 1044.68 78.77 1044.68 231.69 1028.91 231.69 1028.91 151.06 1015.92 132.52 1015.92 109.35 1011.28 109.35 1011.28 131.6 1000.15 151.99 1000.15 202.96 985.3 202.96 985.3 190.91 950.05 190.91 950.05 231.69 932.42 231.69 932.42 202.03 923.14 202.03 923.14 191.83 901.8 191.83 901.8 202.96 892.53 202.96 892.53 193.69 884.18 193.69 884.18 204.81 875.83 204.81 875.83 214.08 835.93 214.08 835.93 252.07 818.3 252.07 818.3 229.83 810.88 229.83 810.88 196.47 773.77 196.47 773.77 215.01 762.64 215.01 762.64 196.47 731.09 196.47 731.09 252.07 698.62 252.07 698.62 233.54 691.2 233.54 691.2 202.96 680.06 202.96 680.06 178.86 604.92 178.86 604.92 224.27 582.65 224.27 582.65 171.45 566.88 171.45 566.88 157.08 509.35 157.08 509.35 192.76 497.3 192.76 497.3 157.08 429.57 157.08 429.57 192.76 417.5 192.76 417.5 209.45 400.81 209.45 400.81 197.4 385.03 197.4 385.03 184.42 359.05 184.42 359.05 196.47 349.08 196.47 349.08 158.71 343.28 152.91 343.28 130.67 317.3 130.67 317.3 153.84 308.95 153.84 308.95 218.71 297.82 218.71 297.82 209.45 268.13 209.45 268.13 227.98 254.21 227.98 254.21 148.28 245.86 148.28 245.86 92.67 238.44 92.67 238.44 50.04 232.87 50.04 232.87 27.8 226.38 27.8 226.38 0 218.03 0 218.03 28.73 212.46 28.73 212.46 55.6 206.9 55.6 206.9 90.82 199.47 90.82 199.47 145.5 188.34 145.5 188.34 216.4 171.64 216.4 171.64 177.01 164.22 177.01 164.22 130.67 155.87 130.67 155.87 118.62 135.46 118.62 135.46 130.67 127.11 130.67 127.11 183.5 108.55 183.5 108.55 207.59 90.92 207.59 90.92 183.5 59.38 183.5 59.38 204.81 8.35 204.81 8.35 229.83 0 229.83 0 314.17 1321.66 317.02 1321.66 194.62 1312.82 194.62"/></svg>