<svg id="crowd" xmlns="http://www.w3.org/2000/svg" viewBox="0 0 268.83 100.82"><defs><style>.cls-1{fill:#3ba2cb;}.cls-2{fill:#438cae;}.cls-3,.cls-5{fill:#316984;}.cls-4{fill:#03475a;}.cls-5{stroke:#316984;stroke-width:2px;}.cls-5,.cls-6{stroke-miterlimit:10;}.cls-6{fill:none;stroke:#03475a;stroke-width:3px;}</style></defs><title>crowd</title><rect class="cls-1" x="9.58" y="19.56" width="15.46" height="23.94" rx="3.37" ry="3.37"/><ellipse class="cls-1" cx="17.65" cy="10.79" rx="9.6" ry="8.6"/><rect class="cls-1" x="1.54" y="32" width="15.46" height="23.94" rx="3.37" ry="3.37"/><ellipse class="cls-1" cx="9.6" cy="23.23" rx="9.6" ry="8.6"/><rect class="cls-1" x="19.09" y="26.15" width="15.46" height="23.94" rx="3.37" ry="3.37"/><ellipse class="cls-1" cx="27.16" cy="17.38" rx="9.6" ry="8.6"/><rect class="cls-1" x="32.99" y="19.56" width="15.46" height="23.94" rx="3.37" ry="3.37"/><ellipse class="cls-1" cx="41.06" cy="10.79" rx="9.6" ry="8.6"/><rect class="cls-1" x="50.55" y="20.29" width="15.46" height="23.94" rx="3.37" ry="3.37"/><ellipse class="cls-1" cx="58.61" cy="11.53" rx="9.6" ry="8.6"/><rect class="cls-1" x="65.91" y="19.56" width="15.46" height="23.94" rx="3.37" ry="3.37"/><ellipse class="cls-1" cx="73.97" cy="10.79" rx="9.6" ry="8.6"/><rect class="cls-1" x="79.08" y="19.56" width="15.46" height="23.94" rx="3.37" ry="3.37"/><ellipse class="cls-1" cx="87.14" cy="10.79" rx="9.6" ry="8.6"/><rect class="cls-1" x="93.71" y="19.56" width="15.46" height="23.94" rx="3.37" ry="3.37"/><ellipse class="cls-1" cx="101.77" cy="10.79" rx="9.6" ry="8.6"/><rect class="cls-1" x="100.29" y="19.56" width="15.46" height="23.94" rx="3.37" ry="3.37"/><ellipse class="cls-1" cx="108.35" cy="10.79" rx="9.6" ry="8.6"/><rect class="cls-1" x="115.65" y="26.15" width="15.46" height="23.94" rx="3.37" ry="3.37"/><ellipse class="cls-1" cx="123.72" cy="17.38" rx="9.6" ry="8.6"/><rect class="cls-1" x="132.48" y="17.37" width="15.46" height="23.94" rx="3.37" ry="3.37"/><ellipse class="cls-1" cx="140.54" cy="8.6" rx="9.6" ry="8.6"/><rect class="cls-1" x="151.5" y="22.49" width="15.46" height="23.94" rx="3.37" ry="3.37"/><ellipse class="cls-1" cx="159.56" cy="13.72" rx="9.6" ry="8.6"/><rect class="cls-1" x="169.05" y="18.83" width="15.46" height="23.94" rx="3.37" ry="3.37"/><ellipse class="cls-1" cx="177.12" cy="10.06" rx="9.6" ry="8.6"/><rect class="cls-1" x="182.95" y="19.56" width="15.46" height="23.94" rx="3.37" ry="3.37"/><ellipse class="cls-1" cx="191.01" cy="10.79" rx="9.6" ry="8.6"/><rect class="cls-1" x="220.26" y="22.49" width="15.46" height="23.94" rx="3.37" ry="3.37"/><ellipse class="cls-1" cx="228.32" cy="13.72" rx="9.6" ry="8.6"/><rect class="cls-1" x="239.28" y="18.83" width="15.46" height="23.94" rx="3.37" ry="3.37"/><ellipse class="cls-1" cx="247.34" cy="10.06" rx="9.6" ry="8.6"/><rect class="cls-1" x="250.25" y="23.22" width="15.46" height="23.94" rx="3.37" ry="3.37"/><ellipse class="cls-1" cx="258.31" cy="14.45" rx="9.6" ry="8.6"/><rect class="cls-1" x="200.51" y="19.56" width="15.46" height="23.94" rx="3.37" ry="3.37"/><ellipse class="cls-1" cx="208.57" cy="10.79" rx="9.6" ry="8.6"/><ellipse class="cls-2" cx="253.03" cy="64" rx="15.8" ry="2.81"/><ellipse class="cls-2" cx="220.03" cy="70" rx="15.8" ry="2.81"/><ellipse class="cls-2" cx="190.03" cy="88" rx="15.8" ry="2.81"/><ellipse class="cls-2" cx="162.03" cy="87" rx="15.8" ry="2.81"/><ellipse class="cls-2" cx="95.03" cy="79" rx="15.8" ry="2.81"/><ellipse class="cls-2" cx="81.03" cy="88" rx="15.8" ry="2.81"/><ellipse class="cls-2" cx="118.03" cy="90" rx="15.8" ry="2.81"/><ellipse class="cls-2" cx="135.03" cy="85" rx="15.8" ry="2.81"/><ellipse class="cls-2" cx="54.03" cy="98" rx="15.8" ry="2.81"/><ellipse class="cls-2" cx="22.03" cy="82" rx="15.8" ry="2.81"/><rect class="cls-3" x="147.05" y="26.83" width="15.46" height="23.94" rx="3.37" ry="3.37"/><ellipse class="cls-3" cx="155.12" cy="18.06" rx="9.6" ry="8.6"/><rect class="cls-3" x="175.05" y="34.83" width="15.46" height="23.94" rx="3.37" ry="3.37"/><ellipse class="cls-3" cx="183.12" cy="26.06" rx="9.6" ry="8.6"/><rect class="cls-3" x="245.05" y="27.83" width="15.46" height="23.94" rx="3.37" ry="3.37"/><ellipse class="cls-3" cx="253.12" cy="19.06" rx="9.6" ry="8.6"/><rect class="cls-3" x="211.05" y="34.83" width="15.46" height="23.94" rx="3.37" ry="3.37"/><ellipse class="cls-3" cx="219.12" cy="26.06" rx="9.6" ry="8.6"/><rect class="cls-3" x="116.05" y="25.83" width="15.46" height="23.94" rx="3.37" ry="3.37"/><ellipse class="cls-3" cx="124.12" cy="17.06" rx="9.6" ry="8.6"/><rect class="cls-3" x="89.05" y="23.83" width="15.46" height="23.94" rx="3.37" ry="3.37"/><ellipse class="cls-3" cx="97.12" cy="15.06" rx="9.6" ry="8.6"/><rect class="cls-3" x="11.05" y="34.83" width="15.46" height="23.94" rx="3.37" ry="3.37"/><ellipse class="cls-3" cx="19.12" cy="26.06" rx="9.6" ry="8.6"/><rect class="cls-4" x="85.44" y="39.4" width="17.74" height="27.48" rx="3.87" ry="3.87"/><ellipse class="cls-4" cx="94.69" cy="29.34" rx="11.02" ry="9.87"/><rect class="cls-4" x="74.44" y="47.4" width="17.74" height="27.48" rx="3.87" ry="3.87"/><ellipse class="cls-4" cx="83.69" cy="37.34" rx="11.02" ry="9.87"/><rect class="cls-4" x="110.44" y="49.4" width="17.74" height="27.48" rx="3.87" ry="3.87"/><ellipse class="cls-4" cx="119.69" cy="39.34" rx="11.02" ry="9.87"/><rect class="cls-4" x="125.44" y="45.4" width="17.74" height="27.48" rx="3.87" ry="3.87"/><ellipse class="cls-4" cx="134.69" cy="35.34" rx="11.02" ry="9.87"/><rect class="cls-4" x="152.44" y="49.4" width="17.74" height="27.48" rx="3.87" ry="3.87"/><ellipse class="cls-4" cx="161.69" cy="39.34" rx="11.02" ry="9.87"/><rect class="cls-4" x="178.44" y="49.4" width="17.74" height="27.48" rx="3.87" ry="3.87"/><ellipse class="cls-4" cx="187.69" cy="39.34" rx="11.02" ry="9.87"/><rect class="cls-4" x="195.44" y="39.4" width="17.74" height="27.48" rx="3.87" ry="3.87"/><ellipse class="cls-4" cx="204.69" cy="29.34" rx="11.02" ry="9.87"/><rect class="cls-4" x="43.44" y="59.4" width="17.74" height="27.48" rx="3.87" ry="3.87"/><ellipse class="cls-4" cx="52.69" cy="49.34" rx="11.02" ry="9.87"/><rect class="cls-4" x="15.44" y="44.4" width="17.74" height="27.48" rx="3.87" ry="3.87"/><ellipse class="cls-4" cx="24.69" cy="34.34" rx="11.02" ry="9.87"/><line class="cls-5" x1="250.25" y1="47.77" x2="248.71" y2="63.14"/><line class="cls-5" x1="255.31" y1="47.77" x2="256.85" y2="63.14"/><line class="cls-5" x1="216.25" y1="54.77" x2="214.71" y2="70.14"/><line class="cls-5" x1="221.31" y1="54.77" x2="222.85" y2="70.14"/><line class="cls-6" x1="202.25" y1="63.77" x2="200.71" y2="79.14"/><line class="cls-6" x1="207.31" y1="63.77" x2="208.85" y2="79.14"/><line class="cls-6" x1="185.25" y1="74.77" x2="183.71" y2="90.14"/><line class="cls-6" x1="190.31" y1="74.77" x2="191.85" y2="90.14"/><line class="cls-6" x1="159.25" y1="72.77" x2="157.71" y2="88.14"/><line class="cls-6" x1="164.31" y1="72.77" x2="165.85" y2="88.14"/><line class="cls-6" x1="131.25" y1="69.77" x2="129.71" y2="85.14"/><line class="cls-6" x1="136.31" y1="69.77" x2="137.85" y2="85.14"/><line class="cls-6" x1="117.25" y1="72.77" x2="115.71" y2="88.14"/><line class="cls-6" x1="122.31" y1="72.77" x2="123.85" y2="88.14"/><line class="cls-6" x1="81.25" y1="71.77" x2="79.71" y2="87.14"/><line class="cls-6" x1="86.31" y1="71.77" x2="87.85" y2="87.14"/><line class="cls-6" x1="92.25" y1="63.77" x2="90.71" y2="79.14"/><line class="cls-6" x1="97.31" y1="63.77" x2="98.85" y2="79.14"/><line class="cls-6" x1="50.25" y1="82.77" x2="48.71" y2="98.14"/><line class="cls-6" x1="55.31" y1="82.77" x2="56.85" y2="98.14"/><line class="cls-6" x1="22.25" y1="66.77" x2="20.71" y2="82.14"/><line class="cls-6" x1="27.31" y1="66.77" x2="28.85" y2="82.14"/></svg>