<svg id="icons" xmlns="http://www.w3.org/2000/svg" viewBox="0 0 130.8 130.8"><defs><style>.cls-1{fill:#f5a621;}.cls-2{fill:#cb942f;}.cls-3{fill:#926928;opacity:0.22;}.cls-4{fill:#754d24;}.cls-5{fill:#5b3b1f;opacity:0.56;}.cls-6{fill:#8e3d1c;}.cls-7{fill:#fff;}.cls-11,.cls-8{fill:#1e2e18;}.cls-9{fill:#69b745;}.cls-10{fill:#392913;opacity:0.18;}.cls-11{opacity:0.29;}</style></defs><title>food</title><rect class="cls-1" x="298.44" y="1769.34" width="92.49" height="92.49" transform="translate(-1462.14 -974.69) rotate(-45)"/><path class="cls-2" d="M343.33,1786.44c-19,0-34.38,13.56-34.38,30.56h68.76C377.71,1800,362.31,1786.44,343.33,1786.44Z" transform="translate(-279.29 -1750.19)"/><path class="cls-3" d="M346.34,1786.64c-1-.08-2-0.16-3-0.16-19,0-34.38,13.52-34.38,30.52h6C315,1801,328.77,1788,346.34,1786.64Z" transform="translate(-279.29 -1750.19)"/><rect class="cls-4" x="28.01" y="68.24" width="72" height="8.14" rx="4.07" ry="4.07"/><path class="cls-5" d="M311.1,1823a4,4,0,0,1,4.07-4h-3.92a4,4,0,1,0,0,8h3.92A4,4,0,0,1,311.1,1823Z" transform="translate(-279.29 -1750.19)"/><rect class="cls-6" x="29.79" y="66.18" width="68.76" height="2.26" rx="1.13" ry="1.13"/><ellipse class="cls-7" cx="70.98" cy="59.89" rx="1.51" ry="1.21"/><ellipse class="cls-7" cx="86.06" cy="59.89" rx="1.51" ry="1.21"/><ellipse class="cls-7" cx="79.72" cy="49.48" rx="1.51" ry="1.21"/><path class="cls-8" d="M309.7,1827s4.07,4.46,8.29.24c0,0,6.94,6,9.35-.33,0,0,8.14,7.22,11.76,0,0,0,7.09,5,12.06,0,0,0,2.11,3.61,10.25,0,0,0,6.33,2.78,8.75.37,0,0,6.11,1.76,8.29-.24H309.7Z" transform="translate(-279.29 -1750.19)"/><path class="cls-9" d="M308.8,1827s4.07,4.31,8.29.08c0,0,6.94,5.92,9.35-.41,0,0,8.14,7.18,11.76-.05,0,0,7.09,4.95,12.06,0,0,0,2.11,3.61,10.25,0,0,0,6.33,2.92,8.75.51,0,0,6.11.91,8.29-.09H308.8Z" transform="translate(-279.29 -1750.19)"/><polygon class="cls-10" points="30.64 68.09 72.03 68.27 66 77.69 30.64 68.09"/><polygon class="cls-2" points="29.89 68.09 71.28 68.24 65.25 76.38 29.89 68.09"/><ellipse class="cls-7" cx="56.8" cy="59.89" rx="1.51" ry="1.21"/><ellipse class="cls-7" cx="41.72" cy="59.89" rx="1.51" ry="1.21"/><ellipse class="cls-7" cx="65.4" cy="51.74" rx="1.51" ry="1.21"/><ellipse class="cls-7" cx="48.06" cy="49.48" rx="1.51" ry="1.21"/><path class="cls-2" d="M346.35,1827H307.75c0,4,3.31,9.81,8.08,12,5.9,2.65,18.17,3,29.17,3h2c9,0,18.36-.35,24.25-3,4.77-2.14,7.37-8,7.37-12H346.35Z" transform="translate(-279.29 -1750.19)"/><path class="cls-11" d="M376.65,1827s-4.07,4.46-8.29.24c0,0-6.94,6-9.35-.33,0,0-8.14,7.22-11.76,0,0,0-7.09,5-12.06,0,0,0-2.11,3.61-10.25,0,0,0-6.33,2.78-8.75.37,0,0-6.11,1.76-8.29-.24h68.76Z" transform="translate(-279.29 -1750.19)"/><path class="cls-9" d="M377.56,1827s-4.07,4.31-8.29.08c0,0-6.94,5.92-9.35-.41,0,0-8.14,7.18-11.76-.05,0,0-7.09,4.95-12.06,0,0,0-2.11,3.61-10.25,0,0,0-6.33,2.92-8.75.51,0,0-6.11.91-8.29-.09h68.76Z" transform="translate(-279.29 -1750.19)"/><path class="cls-3" d="M313.4,1829.91a11.53,11.53,0,0,1,.39-2.91h-6c0,4,2.94,9.81,7.71,12a19.35,19.35,0,0,0,2.92,1C315.22,1837,313.4,1833.59,313.4,1829.91Z" transform="translate(-279.29 -1750.19)"/></svg>