<svg id="fortune_wheel" xmlns="http://www.w3.org/2000/svg" viewBox="0 0 188.43 223.61"><defs><style>.cls-1{fill:#7fd5e9;}</style></defs><title>fortune</title><path class="cls-1" d="M731.65,331.2a2.39,2.39,0,0,0-2.35-2.43h-7.55A89.53,89.53,0,0,0,718.6,307c4.84-1.44,8.34-5.66,8.34-9.27a2.39,2.39,0,0,0-2.35-2.43H714.49a87.78,87.78,0,0,0-10.61-18.19c3.77-1.86,6.34-5.39,6.34-8.48a2.39,2.39,0,0,0-2.35-2.43H694.06a84.47,84.47,0,0,0-18-12.9c3.49-1.92,5.82-5.26,5.82-8.21a2.39,2.39,0,0,0-2.35-2.43h-19a2.39,2.39,0,0,0-2.35,2.43,6.2,6.2,0,0,0,.14,1.26,81.22,81.22,0,0,0-20-2.66,8.49,8.49,0,0,0,2.21-5.27A2.39,2.39,0,0,0,638.2,236h-19a2.39,2.39,0,0,0-2.35,2.43c0,2.4,1.55,5.07,4,7a81.8,81.8,0,0,0-25.17,9.88h-16.4a2.39,2.39,0,0,0-2.35,2.43c0,2.73,2,5.81,5.07,7.77a87.15,87.15,0,0,0-18.25,23.68H553.43a2.39,2.39,0,0,0-2.35,2.43c0,3.45,3.19,7.44,7.69,9.05a88.93,88.93,0,0,0-4.8,22h-8.41a2.39,2.39,0,0,0-2.35,2.43c0,4.12,4.57,9,10.49,9.7a89.15,89.15,0,0,0,4.78,25.11h-7.68a2.39,2.39,0,0,0-2.35,2.43c0,4.43,5.28,9.78,11.83,9.78a12.19,12.19,0,0,0,3.24-.45A87.65,87.65,0,0,0,574,387.5h-7.45a2.39,2.39,0,0,0-2.35,2.43c0,4.43,5.28,9.78,11.83,9.78a12.65,12.65,0,0,0,7.46-2.49,84.12,84.12,0,0,0,16.17,11.11h-6a2.39,2.39,0,0,0-2.35,2.43c0,4.43,5.28,9.78,11.83,9.78A12.66,12.66,0,0,0,614,414.2l1.78,0.52-4.38,18.13h-9a9.8,9.8,0,0,0-9.19,6.69H574a10,10,0,0,0,0,20.06H712.31a10,10,0,0,0,0-20.06H693.1a9.8,9.8,0,0,0-9.19-6.69H669.38l-5.08-19.59a82.24,82.24,0,0,0,14-6.37,12.78,12.78,0,0,0,9.06,3.89c6.55,0,11.83-5.35,11.83-9.78a2.39,2.39,0,0,0-2.35-2.43h-6.59a86.88,86.88,0,0,0,20.25-24.39,12.11,12.11,0,0,0,2.23.21c6.55,0,11.83-5.35,11.83-9.78a2.39,2.39,0,0,0-2.34-2.43h-6.15a88.84,88.84,0,0,0,5.11-21.27C727.1,340.22,731.65,335.32,731.65,331.2Zm-28.38,31a2.39,2.39,0,0,0-2.35,2.43,7.48,7.48,0,0,0,1.08,3.66,77.26,77.26,0,0,1-5.66,8.84l-20.43-16.64a50.08,50.08,0,0,0,7.5-15.14l25,7.38a77.5,77.5,0,0,1-3.43,9.47h-1.73Zm-11.34,22.51q1.87-2,3.6-4.16l-0.58,7.26Zm-54.23,29.25c-1.91,0-3.8-.07-5.67-0.21l0.43-5.3c1.73,0.12,3.48.19,5.24,0.19a72.71,72.71,0,0,0,18.81-2.46l1.33,5.14A77.71,77.71,0,0,1,637.69,413.93Zm-67.92-54h-0.32a77.71,77.71,0,0,1-3.87-12.71l9.12-1.95a0.37,0.37,0,0,0,.3-0.06L591,341.76a50.27,50.27,0,0,0,4.85,13L573.47,368.4q-1-1.77-1.85-3.59a6.81,6.81,0,0,0,.5-2.48A2.39,2.39,0,0,0,569.77,359.91Zm-7.34-27.48q0,2.13.2,4.22l-5.12.48c-0.06-.82-0.11-1.65-0.15-2.48A12.88,12.88,0,0,0,562.43,332.44Zm4.44-7.33a2.39,2.39,0,0,0-2.35-2.43h-0.28q0.18-1.74.43-3.45l25.66,4.42a51.41,51.41,0,0,0-.49,7.06c0,1.14,0,2.27.11,3.39L564,336.53q-0.19-2.61-.21-5.27A9,9,0,0,0,566.87,325.1Zm7.87-33.49a2.48,2.48,0,0,0-.1-0.67A77,77,0,0,1,579,284.3l20.43,16.64a50.05,50.05,0,0,0-7.5,15.14l-25-7.38a77.43,77.43,0,0,1,3.67-10C573.15,296.74,574.74,294,574.74,291.61Zm8.73-14.89q-1.9,2-3.66,4.24l0.6-7.37Zm122.26,9.65L699,283.86a0.51,0.51,0,0,0-.47.06,0.55,0.55,0,0,0-.23.43v0.18l-0.22-.31,4.08-3.23Q704,283.6,705.72,286.37Zm1.38,18.2a77.52,77.52,0,0,1,2.71,9.64l-9.13,1.95a0.5,0.5,0,0,0-.3,0,0.51,0.51,0,0,0-.27.16L691,318.22h0l-6.65,1.42a50.19,50.19,0,0,0-4.85-13L701.92,293q0.92,1.67,1.76,3.39a2.47,2.47,0,0,0-.39,1.33C703.29,300,704.75,302.64,707.1,304.56Zm4.15,33q-0.2,2.33-.53,4.61l-25.66-4.42a51.31,51.31,0,0,0,.49-7.06c0-1.14,0-2.27-.11-3.39l25.91-2.43q0.14,1.94.19,3.9h-1.19A2.39,2.39,0,0,0,708,331.2,9.17,9.17,0,0,0,711.25,337.57ZM681.19,373.7l5.7-1.53,0.72,0.59L687,379.69ZM665,401.46L661,400.32l-0.78-3,1.92-3.11Zm-34.68,7.13a0.56,0.56,0,0,0-.1-0.16l-0.22-.22,0.35,0Zm-1.34.09L623.13,412l0.89-4.63q2.13,0.41,4.3.69Zm-32.53-18.74,2,5.47q-2-1.31-3.93-2.75Zm-32.22-51.26,2.94-.28-2.36,4.77Q564.47,341,564.24,338.69Zm-0.53,6.41-5.77-5.82,4.89-.46Q563.14,342,563.7,345.09Zm1.42-.15,3-6.15,4.59,4.66-7.61,1.62Zm8.87-1.76-4.89-5,8.35-.78L575,343Zm19.51-12.49a47.44,47.44,0,0,1,.45-6.44l34,5.86c0,0.13,0,.26,0,0.4l-34.35,3.22C593.55,332.74,593.51,331.73,593.51,330.7Zm-28.28-14.81,4.56-4.11,0.26,0.07,2.78,6.57L565,317.08C565.08,316.68,565.16,316.29,565.23,315.89Zm28.44-28.72-5.81,1.55-0.16-.13,0.59-6.93Zm26.07-16.8-5.84-1.65-0.07-.18,3.81-5.7Zm49.8,3.4,2.62,6.61-6.41.42Zm7.24-9.65,7.73-.43-2.78,3.87q-2.4-1.8-4.94-3.4v0Zm4.1,4.62L679.24,271l-1.64-4.61Q679.27,267.53,680.88,268.74Zm20.41,49.5,4.86,4.95-8.42.79,2.5-5.51Zm1.24-.26,7.63-1.63-3.11,6.24Zm-5.8,5.67L693,320l5.91-1.26Zm-4.92-3.39,3.93,3.9-8.57.8,3.22-4.4Zm-9.92,10.44a47.44,47.44,0,0,1-.45,6.44l-34-5.86c0-.13,0-0.27,0-0.4l34.35-3.22C681.83,328.66,681.88,329.68,681.88,330.7Zm-18.63,22.2,0.35,2.79-4.19-4.29,2.19,0.16Zm1.56,4-0.39-3.07,4.72,3.85h-3.57Zm-6.55-6.7-6.65-6.81,8.52,6.94Zm-0.44,33.35L657,385l-0.79-3,1.2,0.58ZM661.6,393l-1.79,2.91-1.18-4.57,2.56,0.61Zm-30.29,3.55-4.22-4,0.26-1.07,4.58-2.61Zm-14.77-28.74L615.87,363l3.8-1.1Zm4.53-12.1,0.23,3.26-0.9,1.68-3.62,1Zm1.16,1.53-0.17-2.41a0.55,0.55,0,0,0-.13-0.31l7.06-9.84Zm-11.32-6.64-3.2-.42,4.28-2.59-1,2.92Zm-4.68.48,3.49,0.46-6.25,5,1.11-4.42Zm7.14-4.33,10.23-6.2-11.07,8.78Zm-8.66-10.08-2.35-1.53,5.27-.5-1.6,1.74Zm-4.08-1.36,2.59,1.68-6.4,1.37,2.31-2.91Zm8.58-.8,10.11-.95L607.83,336Zm-4.43-10.53-1.61-2.3,4.78,1.41-2.22,1Zm-3.25-2.78,1.77,2.52-7-1.2,3.32-1.88Zm8,2.35,10.08,3-12-2.07Zm2.7-15-0.35-2.77,3.47,3.55-2.39-.18Zm-1.56-4,0.38,3.05L605.45,303h3.74Zm5.82,6,7.31,7.49-9.38-7.64Zm9.24-12.44,1-2.63,1.55,5.54-2-1.37Zm0.58-4.31-1.15,2.89-2.53-6.29,3.27,1.93Zm2.47,8.83,2.79,10L627,301.4ZM642.2,288l2,3.23-0.19,1-2.33,2Zm0.29,12.17-1.11-2.1,0.19-2.29,2.12-1.85Zm-1.27-.14,0.95,1.79-1.89,9.8Zm18-7.08,0.67,5-0.53.73-3.82,1.08Zm-4.53,12.26-0.22-3.43,0.37-.68,3.52-1Zm-1.16-1.69,0.19,3-7.3,10.16Zm11.59,6.78,3.32,0.46-4.87,3,1-3Zm4.78-.43-3.61-.5,5.94-4.71L671,309.22Zm-7.73,4.69-10.36,6.28L663,312Zm8.54,10.16,2.34,1.53-5.59.52,1.56-1.69Zm4.06,1.37-2.58-1.68,6.1-1.3L676,326Zm-8.9.84-9.79.92,11.13-2.38ZM631.1,375.92l0.38-1.58,1.12,1.78C632.1,376.05,631.6,376,631.1,375.92Zm0.73-3,1.34-5.54,0.54-.47-0.65,8Zm2-7.88,0,0.33-0.23.2,0.17-.69Zm-4.64,18.68,2.7,3.91L627.7,390ZM626,397.06l0.81-3.34,4.12,3.91-5.64,3.11Zm6.16-11-2.6-3.76,0.62-2.56,0.18-.12c0.76,0.12,1.53.22,2.3,0.31Zm4.93-34.93,2.42-10,1.93,6.91,7,27a42.74,42.74,0,0,1-10.75,1.37c-0.89,0-1.77,0-2.65-.09ZM672.93,340l-1.72-2.4,6.77,1.17-3.12,1.8Zm-17.12-5.05,11,1.9-1.74.84Zm12.85,2.21,1.07,0.18,1.55,2.17-4.65-1.37Zm11,1.89,0.9,0.16L681,340q-0.23,1.13-.5,2.23L676.28,341Zm4.35,4.21q0.42-1.65.72-3.34l3.9,0.67-4.32,2.76Zm-6.54-17.36,2.46-3.08,1.24-.27c0.17,1,.32,2,0.42,3Zm8.43-1-0.74-.63q-0.16-1.27-.38-2.52l4.06-.86ZM647,327.62a9.91,9.91,0,0,0-.39-1l29.75-18a46.32,46.32,0,0,1,4.42,11.88Zm25.36-19.18,1.17-4.49q0.93,1.32,1.76,2.71Zm16.61-10.21-5.87-2.12L689,291.4Zm1.12-7.21,6.77,2.56L690,297.73Zm-2.17,8-7.07,4.29,1.37-6.35Zm-8.3,5h0l-1.91-.53q-0.66-1-1.37-2l4.63-3.67Zm-34.85,19.72c-0.14-.15-0.29-0.3-0.43-0.44l20.56-28.63a45.35,45.35,0,0,1,7.24,7.38Zm16-27L660,291.42h0l0.18,0q1.52,0.94,3,2Zm5.89-8.2-1.18-6.66,6.26-.41Zm6.38-8.88-2.54-6.4,7.41-.39ZM664.59,283l1.16,6.53-1.27.18q-1.27-.89-2.59-1.69Zm-23.1,38.45c-0.29-.13-0.58-0.24-0.88-0.33l6.73-35a42.89,42.89,0,0,1,10.92,4.17Zm3-31.68-2.16-3.47,0.08-1c1,0.11,1.92.25,2.86,0.42Zm1.94-10.09L643.26,275l0.08-1,4.71-2.65Zm2.09-10.86-4.43-4.25,0-.44,5.92-3.23ZM644,265.91l4.24,4.07-4.79,2.7Zm-0.87,10.75,3,4.39-1.07.71q-1.15-.18-2.32-0.31Zm-5.66,44a9.61,9.61,0,0,0-1.44.15l-9.58-34.3A42.72,42.72,0,0,1,637.69,285c0.89,0,1.77,0,2.65.09Zm-12-29.86-3.51-2.07-0.25-.61c0.9-.36,1.8-0.7,2.72-1Zm-7.93-13.08,3-4.61,2.19,7.84-4.94-2.63Zm2.57-6.11,0,0.14L617,276.5,614.41,270Zm3,10.77,0.08,0.27-0.6,1.08q-1.16.4-2.3,0.86l-1.9-4.72ZM633,321.87a9.74,9.74,0,0,0-1.46,1l-20.22-20.7a0.53,0.53,0,0,0-.11-0.12L607,297.81a44.31,44.31,0,0,1,12.71-8.88ZM608.13,302h-4l-0.47-.38c0.61-.77,1.26-1.51,1.92-2.23Zm-12.84-7.2,0.4-5.54,5.48,5.61-5.49.25Zm-0.74-6.7,0.16,0.16L594.29,294l-5.39-4.39Zm7.63,7.81,0.4,0.4v0.84q-0.93,1-1.8,2.12l-3.84-3.13Zm27.27,29.49a10,10,0,0,0-.77,1.55l-33.17-9.79a46.25,46.25,0,0,1,6.86-13.83Zm-31.24-5.19-3.56,2-0.35-.06c0.18-1,.38-2,0.63-2.92Zm-14.63.11-2.23-5.08,7.42,2.19-4.74,3Zm-9.5-1.64-2.71-6.39,7.27,2.15-4.41,4.27Zm5.73-3.9L580,314.8l2.31,5.26-6.81-1.17Zm10.33,3,0.51,0.15,0.55,1q-0.29,1.24-.52,2.51l-5.07-.87Zm7.53,17.76-2.48,3.12-1,.2c-0.17-1-.32-2-0.42-3Zm-14.15,5.61-4-3.91,8.43-.79-3.22,4.43Zm-5-3.45,3.76,3.72-6,1.29Zm10.84-1.3,0.92,0.78q0.16,1.23.37,2.45l-4.31.92Zm39.09-2.62a10.43,10.43,0,0,0,.39,1l-29.75,18A46.38,46.38,0,0,1,594.65,341Zm-25.12,19-1.17,4.62-0.32-.09q-0.89-1.27-1.69-2.61Zm-16.45,10,5.93,2.1-6,4.72ZM585.78,370l-6.77-2.5,6.79-4.12Zm2.23-8,6.88-4.17-1.28,6.15Zm8.1-4.91,0.28-.17,0.93,0.25q0.84,1.37,1.77,2.67l-4.25,3.37Zm34.54-19.53c0.14,0.15.28,0.3,0.43,0.44l-20.56,28.63a45.24,45.24,0,0,1-7.24-7.38ZM615,364.16l0.72,5.17-0.41.75q-1.59-1-3.08-2.07Zm-5,6.91h0Zm-0.92,1.28,1.26,6.9-0.28.52-6.66.49Zm-6.46,9,2.83,7,0,0.05-8.21.48Zm3.47,5.8-2.35-5.83,5.71-.42Zm5-9.37-1-5.62,1.17-.17q1.09,0.75,2.21,1.43Zm22.65-37.62-8.33,34.48a43.15,43.15,0,0,1-8.36-3.49Zm-9.19,64.07,2,2.05c-0.78-.12-1.56-0.26-2.33-0.4Zm3.75,2.3L624.86,403l0.16-.84,6.11-3.37-0.65,8Q629.42,406.66,628.37,406.53Zm6.37-26.4c1,0.06,2,.1,3,0.1a46.24,46.24,0,0,0,11.7-1.5l6.74,26a71.37,71.37,0,0,1-18.44,2.41c-1.72,0-3.43-.07-5.13-0.19Zm26.53,21.41,2.46,0.69q-1,.4-2.08.78Zm-3-11.41-1-3.7,1-1.61,2.37,5.88Zm-2.47-9.55-0.95-3.66,0.22-.09L656.8,381Zm-5.51-21.26-5-19.25,23,23.53a44.27,44.27,0,0,1-12.71,8.88Zm16.3-.51h3.84l1.26,1c-0.61.77-1.26,1.51-1.92,2.23Zm13.41,7.8-0.39,5.54-6-6.18,5.33-.25Zm8.56,7,6.32,5.15L688,380.28Zm-7.94-.84L681,367.4l4.83,3.93Zm-7.86-7.83v-0.59q0.93-1,1.82-2.14l3.07,2.5ZM645.94,336a10.3,10.3,0,0,0,.77-1.55l33.17,9.79A46.25,46.25,0,0,1,673,358.12Zm44.25,4.8L691,341l2.24,5-7.61-2.25Zm2.09,0.36,6.44,1.11-4.12,4.05Zm7.73,1.33,0.57,0.1,2.73,6.31-7.54-2.23Zm1.81,0.31,8.24,1.42-5.46,5ZM708,323l2.5-5c0.25,1.56.47,3.14,0.63,4.73Zm3.69-6.53,5.59,5.66-4.73.44Q712.26,319.5,711.71,316.48Zm0.85-.65,4.09-.87q0.54,2.92.89,5.92Zm-1.36-1.92a79.45,79.45,0,0,0-2.15-8,12.52,12.52,0,0,0,5.86,1.59q0.74,2.64,1.31,5.34ZM699,292.27l0.18-3.9q0.88,1.36,1.7,2.76Zm0.29-6.34,0-.8,7.09,2.65-4.3,2.61C701.2,288.86,700.25,287.38,699.27,285.93Zm-1.09,1-0.27,5.94-7.25-2.74,6.28-5Q697.57,286,698.17,286.89ZM675,299.75a49.13,49.13,0,0,0-8-8.12L682.56,270a75.76,75.76,0,0,1,13.1,13.36ZM687.9,272.7q-2.17-2-4.49-3.85l3.06-4.27q1,0.81,2,1.65a2.4,2.4,0,0,0-1.93,2.38A7.74,7.74,0,0,0,687.9,272.7ZM676,263.08a0.52,0.52,0,0,0-.41.24,0.59,0.59,0,0,0,0,.08l-0.34-.21,2.5-4.65q3.18,1.9,6.17,4.09Zm0.13,2.39,2.25,6.31-8,.42,4.15-7.72Zm-16.09,21.47a46.47,46.47,0,0,0-12-4.58l5.08-26.4a71.75,71.75,0,0,1,19.57,7.47Zm-9.47-28.8-3.1-3.2q1.81,0.25,3.6.59Zm-4.74-4.89,0,0,6.39-3.52-0.84,4.38Q648.64,253.56,645.85,253.25Zm-0.76-.86,0.37-4.53q3.17,0.32,6.27.88Zm0.71,2.33,4.54,4.68,0,0.09-6.08,3.31,0.66-8.19Zm-5.15,26.55c-1-.06-2-0.1-3-0.1a46.28,46.28,0,0,0-12.28,1.66L618.19,257a71.3,71.3,0,0,1,19.51-2.71c1.72,0,3.43.07,5.13,0.19Zm-23.81-21.33-3.9-1.26q1.6-.59,3.23-1.11Zm-6.12-2-0.15,0,4-6,1.2,4.29Q613.21,257,610.71,258Zm-1.25-.3-1.7-4.22q2.93-1.22,6-2.21Zm1.87,1.63,5.85,1.89,0.08,0.3-3.91,5.85-3.06-7.62Zm7,26.11a48,48,0,0,0-13.91,9.72L586,276.22a74,74,0,0,1,22.4-15.65Zm-32.08-5.83-4.26,1q1.2-1.43,2.47-2.79Zm-5.38,2.33,6.27-1.42,0.17,0.18-0.6,7.12-6.38-5.2Zm-12.29,29.52-3,2.7q0.36-1.69.8-3.36Zm-4.78,4.3-0.2.18-2.92-6.81,4.32,1.27Q564.33,313,563.81,315.74Zm-1,1-4.27-.73q0.54-3.13,1.31-6.17Zm-0.1,28.9-4,.85q-0.53-2.83-.87-5.73Zm14.15,23.27-0.19,4.83q-1.11-1.68-2.14-3.42ZM576.46,376l-7.07-2.58L573.3,371Q574.79,373.56,576.46,376Zm0.43,1.31a0.52,0.52,0,0,0,.17,0l0.12,0-3.95,3.13q-2.06-2.85-3.88-5.89Zm0.76-2.11,0.27-6.86,7.24,2.67-6.71,5.32Zm22.71-13.52a49.06,49.06,0,0,0,8,8.12l-15.51,21.59A75.76,75.76,0,0,1,579.73,378ZM592,392.55l-3.06,4.27q-1.39-1.1-2.72-2.25a8.09,8.09,0,0,0,1.71-4.64,2.48,2.48,0,0,0-.25-1.07Q589.74,390.78,592,392.55Zm-1.38,5.56,3.06-4.27q2.67,2,5.5,3.76l-8.54.53Zm9.32,0.53-2.27,4.21q-2.91-1.74-5.66-3.72Zm0-2.3L597.58,390l7.25-.43-4,7.4Zm15.44-21.87a46.6,46.6,0,0,0,9.25,3.86l-6.31,26.12a72,72,0,0,1-15.6-6.47Zm14.78,34.83a0.51,0.51,0,0,0,.17-0.16l-0.36,4.41q-3-.3-6-0.83ZM662,404.43q1.74-.62,3.43-1.31l-2.65,4.34Zm1.43-12.51a0.56,0.56,0,0,0,0-.34,0.52,0.52,0,0,0-.21-0.24L657,376a48,48,0,0,0,13.91-9.72l18.48,18.92A74,74,0,0,1,667,400.84Zm25.14-10.66,5.49-1.25q-1.53,1.86-3.16,3.63Zm17.16-31.6,4.38-4q-0.48,2.52-1.13,5Zm5.73-3.44,2.58,5.9L710.37,351Q711,348.65,711.47,346.22Zm0.44-1.63,4.94,0.85q-0.61,3.54-1.52,7Zm0.21-2.16q0.27-1.87.46-3.77a12.83,12.83,0,0,0,4.94,2.11q-0.15,1.27-.33,2.54Zm0.83-13.65q0-2-.19-4l5.12-.48q0.17,2.24.22,4.51h-5.14Zm-7.31-33.49a2.27,2.27,0,0,0-.82.16q-0.8-1.62-1.66-3.19l4.43-2.69q1.54,2.79,2.87,5.72h-4.82Zm-4.77-16-4.08,3.23a77.68,77.68,0,0,0-5.24-6.17,12.57,12.57,0,0,0,6.85,2.08,12.13,12.13,0,0,0,1.7-.12Zm-25-21.77-2.5,4.64a73.18,73.18,0,0,0-20-7.63l1-5.22q3.4,0.75,6.69,1.79a12.77,12.77,0,0,0,9,3.78l0.69,0Q673.38,256.07,675.91,257.49Zm-47.19-9.29a12.25,12.25,0,0,0,3.53-.53c1.8-.13,3.61-0.2,5.44-0.2s3.8,0.07,5.67.21l-0.43,5.3c-1.73-.13-3.48-0.19-5.25-0.19a72.74,72.74,0,0,0-19.9,2.77l-1.43-5.11a77.66,77.66,0,0,1,11.18-2.32A11.79,11.79,0,0,0,628.72,248.2Zm-39.9,19.32c6.55,0,11.83-5.35,11.83-9.78a2.49,2.49,0,0,0-.14-0.81q2.61-1.41,5.33-2.63l2,4.91a75.46,75.46,0,0,0-22.87,16l-3.65-3.74q2.2-2.24,4.55-4.3A12.16,12.16,0,0,0,588.82,267.52Zm-9.46,6-0.63,7.79-3.53-2.88Q577.18,275.85,579.36,273.48Zm-5.46,6.62,4,3.29q-2.23,3-4.18,6.25a2.28,2.28,0,0,0-1.36-.45H568A83.81,83.81,0,0,1,573.9,280.09Zm-11,21.29a12.41,12.41,0,0,0,5.58-1.34,79.24,79.24,0,0,0-2.9,8.24l-4.94-1.46q0.8-2.77,1.78-5.45h0.48Zm-4.72,16.71,5.07,0.87q-0.27,1.83-.45,3.7h-5.16Q557.86,320.37,558.19,318.1Zm1,30.47,5-1.07a79.3,79.3,0,0,0,3.73,12.42h-5.52A84.63,84.63,0,0,1,559.15,348.57Zm11.65,17.84q0.7,1.39,1.44,2.74l-4.43,2.69q-0.45-.82-0.89-1.65A12.32,12.32,0,0,0,570.8,366.41Zm3.72,15.73,4.08-3.23a77.6,77.6,0,0,0,7.79,8.75,2.28,2.28,0,0,0-.83-0.16H579Q576.64,384.92,574.52,382.14Zm40.43,28.39a2.37,2.37,0,0,0-2.32-2.21h-3.94a78.54,78.54,0,0,1-9.2-4.41l2.5-4.64a73.32,73.32,0,0,0,15.95,6.61L616.68,411Zm48.47,22.32H617.35l4.05-16.77A80.9,80.9,0,0,0,633,417.59a2.5,2.5,0,0,0,0,.39c0,4.43,5.28,9.78,11.83,9.78s11.83-5.35,11.83-9.78a2.43,2.43,0,0,0-1.34-2.19c1.16-.26,2.31-0.53,3.46-0.84Zm-0.24-24,2.91-4.76,1.54,3.83q-2.11.88-4.27,1.64Zm14.71-10.32a2.39,2.39,0,0,0-2.35,2.43,7,7,0,0,0,.63,2.77q-3.22,1.82-6.61,3.34l-2-4.91a75.48,75.48,0,0,0,22.87-16L694.1,390a81.81,81.81,0,0,1-9.9,8.6h-6.31ZM696,388l0.63-7.89,3.58,2.92Q698.18,385.58,696,388Zm5.51-6.67-4-3.29a78.53,78.53,0,0,0,5.45-8.42,12.78,12.78,0,0,0,4.06,3.33A83.69,83.69,0,0,1,701.49,381.31Zm5.06-19.13a78.73,78.73,0,0,0,3.24-9.06l4.94,1.46q-1.13,3.88-2.6,7.6h-5.59Z" transform="translate(-543.21 -235.99)"/></svg>