<svg id="icons" xmlns="http://www.w3.org/2000/svg" viewBox="0 0 71.16 67.66"><defs><style>.cls-1{fill:#f6f4bd;}.cls-2{fill:#d1cea0;}.cls-3{fill:#dcd9ae;}.cls-4{fill:#e76972;}.cls-5{fill:#a8545f;}.cls-6{fill:#b25d6b;}.cls-7{fill:#994751;}.cls-8{fill:#ed6f7f;}</style></defs><title>gift</title><polygon class="cls-1" points="34.75 0 0.09 13.1 35.27 30.6 36 30.5 36 11.26 36 30.5 71.16 12.92 34.75 0"/><polygon class="cls-2" points="36 30.47 36 67.66 71 50.11 71 12.91 36 30.47"/><polygon class="cls-3" points="0 13.08 36 30.46 36 67.64 0 50.27 0 13.08"/><polygon class="cls-4" points="13.79 7.92 48.68 24.02 57.76 19.28 23.2 4.36 13.79 7.92"/><polygon class="cls-5" points="49 24.06 58 19.28 58 56.56 49 60.96 49 24.06"/><polygon class="cls-4" points="23.37 24.81 55.02 7.3 45.27 3.79 13.79 20.02 23.37 24.81"/><polygon class="cls-6" points="23.16 61.9 23.53 24.84 14 20.02 14 57.33 23.16 61.9"/><path class="cls-7" d="M979.62,1803.67s15.65,8.92,15.65,5.35C995.26,1809,997,1802.52,979.62,1803.67Z" transform="translate(-948.99 -1788.32)"/><path class="cls-8" d="M995.26,1809l8.78-4.12s1.45-6-15.65-5.35l-8.78,4.12S996.25,1802,995.26,1809Z" transform="translate(-948.99 -1788.32)"/><path class="cls-7" d="M980.22,1804.16s-15.07-5.71-9.8-7.7C970.42,1796.45,972.2,1794.33,980.22,1804.16Z" transform="translate(-948.99 -1788.32)"/><path class="cls-8" d="M970.14,1796.18l7.15-2.7s3-1.09,10.45,6.38l-7.8,4S973.71,1796.18,970.14,1796.18Z" transform="translate(-948.99 -1788.32)"/></svg>