<svg id="kid" xmlns="http://www.w3.org/2000/svg" viewBox="0 0 89.64 201.15"><defs><style>.cls-1{fill:#438cae;}.cls-2{fill:#e59981;}.cls-3{fill:#0372a2;}.cls-11,.cls-14,.cls-4,.cls-8{fill:none;stroke-miterlimit:10;}.cls-4{stroke:#0372a2;}.cls-11,.cls-4{stroke-width:4px;}.cls-5{fill:#271e21;}.cls-6{fill:#db452c;}.cls-7{fill:#f4f4f4;}.cls-8{stroke:#ccc;}.cls-9{fill:#eeae93;}.cls-10{fill:#d26c5e;}.cls-11{stroke:#db452c;}.cls-12{fill:#26451f;}.cls-13{fill:#213a1b;}.cls-14{stroke:#26451f;stroke-width:8px;}</style></defs><title>vivalart13</title><ellipse class="cls-1" cx="45.64" cy="194.65" rx="36.5" ry="6.5"/><ellipse class="cls-2" cx="84.56" cy="65.82" rx="5.08" ry="4"/><path class="cls-3" d="M816.49,606.73l31.84-2.35s3.6,9.12-11.63,11.62C836.7,616,819,621.62,816.49,606.73Z" transform="translate(-784.85 -457.85)"/><path class="cls-4" d="M828.9,614.29S819.43,633.83,802.4,641" transform="translate(-784.85 -457.85)"/><path class="cls-4" d="M834.33,607.94s36.23,7,27.92,15.36S847.86,635,847.86,635" transform="translate(-784.85 -457.85)"/><ellipse class="cls-5" cx="808.83" cy="644.33" rx="3" ry="8.16" transform="translate(-934.55 574.54) rotate(-60.58)"/><ellipse class="cls-5" cx="851.83" cy="638.33" rx="3" ry="8.16" transform="translate(-996.37 229.22) rotate(-39.47)"/><path class="cls-6" d="M832,461.67s12.33-11.26,42.5,4.87L832,461.67" transform="translate(-784.85 -457.85)"/><path class="cls-6" d="M832.28,462.69s13.79-9.42,41.4,10.78l-41.4-10.78" transform="translate(-784.85 -457.85)"/><circle class="cls-7" cx="60.89" cy="64.57" r="15.58"/><path class="cls-6" d="M786.66,494.52C776,529,816,545,816,545l16-83.33S797.33,460,786.66,494.52Z" transform="translate(-784.85 -457.85)"/><path class="cls-8" d="M838.33,523.67c5.67,5.39,5.33,5.33,17.67,7.53" transform="translate(-784.85 -457.85)"/><path class="cls-9" d="M855.83,467.51L832,461.67c-13.14,16.52-18.87,32-20.83,45-6-.09-17.61.57-18.84,7-1.67,8.67,3.32,24.33,18,16.17l0.92-.51A54.3,54.3,0,0,0,816,545v7h9l1.34-7.13c16.67,1.69,29.94-8.9,29.94-8.9-39.07,0-12.91-19.68-12.91-19.68,12,16.33,25.38,15,25.38,15C872.41,480.92,855.83,467.51,855.83,467.51Z" transform="translate(-784.85 -457.85)"/><path class="cls-2" d="M855.83,467.51l-4-1c3.56,3.93,15,20.07,11.88,62.72a19.74,19.74,0,0,1-6.8-.92c6.71,3.43,11.8,2.92,11.8,2.92C872.41,480.92,855.83,467.51,855.83,467.51Z" transform="translate(-784.85 -457.85)"/><path class="cls-2" d="M821.34,542.87L820,550h-4v2h9l1.34-7.13c16.67,1.69,29.94-8.9,29.94-8.9-2.82,0-5.28-.11-7.46-0.3C844.24,538.6,833.73,544.13,821.34,542.87Z" transform="translate(-784.85 -457.85)"/><ellipse class="cls-5" cx="76.98" cy="53.49" rx="2.5" ry="4.33"/><path class="cls-10" d="M810.8,511.33L809.49,528s-13.5-.25-13.5-12.37C796,515.62,796.3,511.33,810.8,511.33Z" transform="translate(-784.85 -457.85)"/><path class="cls-6" d="M827.11,462.38s15.12-7.08,39.14,17.28l-39.14-17.28" transform="translate(-784.85 -457.85)"/><line class="cls-11" x1="64.12" y1="41.48" x2="77.39" y2="32.68"/><ellipse class="cls-9" cx="63.87" cy="136.33" rx="5.61" ry="3.81"/><path class="cls-12" d="M830.66,550S852,570,848,604.35l-31.5,2.38-5.17-49.4s-0.67-7.33,9.33-7.33h10Z" transform="translate(-784.85 -457.85)"/><path class="cls-13" d="M830.66,550h-4S848,570,844,604.35l-27.53,2.08,0,0.3,31.5-2.38C852,570,830.66,550,830.66,550Z" transform="translate(-784.85 -457.85)"/><ellipse class="cls-9" cx="52.87" cy="119.33" rx="5.61" ry="3.81"/><path class="cls-14" d="M822.45,556.5s-41.79,32.5-21.13,28,34.17-7,34.17-7" transform="translate(-784.85 -457.85)"/></svg>