<svg id="logo" xmlns="http://www.w3.org/2000/svg" viewBox="0 0 132.88 28.4"><defs><style>.cls-1{fill:#03475a;fill-rule:evenodd;}</style></defs><title>logo</title><path class="cls-1" d="M205.08,46.83c0.05-.73,0-1.7-0.82-1.92a1.53,1.53,0,0,0-.68-0.09,13.78,13.78,0,0,0-2.06.17,1,1,0,0,0-.33.71c-0.31,6.05-.6,12.11-0.87,17.81,0,0.32,0,.61.07,0.88s0,0.48-.05.72c-0.05.73,0,1.7,0.82,1.92a1.53,1.53,0,0,0,.68.09,13.78,13.78,0,0,0,2.06-.17,1,1,0,0,0,.33-0.71c0.31-6.05.6-12.11,0.87-17.81,0-.32,0-0.61-0.07-0.88S205.07,47.07,205.08,46.83Z" transform="translate(-182.85 -39.54)"/><path class="cls-1" d="M233.44,65l-0.89-.11-1.22-.06h0.81a4.8,4.8,0,0,1-.14-0.5c-0.23-1-.46-2.07-0.69-3.1l1.54,0.18a0.94,0.94,0,0,0,1.21-.87,13.4,13.4,0,0,0-.06-2.69,0.57,0.57,0,0,0-.44-0.33l-3.14-.25q-0.54-2.37-1.09-4.73c-0.38-1.62-.94-3.2-1.24-4.83a1.53,1.53,0,0,0-1.17-1.51c-0.82-.16-1.73-0.45-2.3.55-0.79,1.39-1.61,2.77-2.39,4.17-2.23,4-3.42,8.4-5.07,12.62l-0.75,1.4-0.54.07c-0.54.06-.85,0.24-0.81,0.66s0,0.93,0,1.4,0.54,0.93,1.41.9l2,0,2,0c0.87,0,1.38-.28,1.41-0.9s0-.93,0-1.4S221.59,65,221,65l-0.89-.11H220l0,0h0.25a50.05,50.05,0,0,1,1.31-4.88c1.24,0.18,2.47.33,3.71,0.49l2.94,0.39,0.89,4h1.27l-1.22.06-0.89.11c-0.54.06-.85,0.24-0.81,0.66s0,0.93,0,1.4,0.54,0.93,1.41.9l2,0,2,0c0.87,0,1.38-.28,1.41-0.9s0-.93,0-1.4S234,65,233.44,65Zm-10.72-8.33c0.85-2.22,1.81-4.39,2.81-6.55h0.29l1.53,6.9Z" transform="translate(-182.85 -39.54)"/><path class="cls-1" d="M267.17,65.64c0,0.46,0,.93,0,1.4s0.54,0.93,1.41.9l2,0,2,0c0.87,0,1.38-.28,1.41-0.9s0-.93,0-1.4S273.7,65,273.17,65l-0.89-.11-1.22-.06h1.27l0.89-4,2.94-.39c1.24-.16,2.47-0.3,3.71-0.49a50.05,50.05,0,0,1,1.31,4.88h0.25l0,0h-0.18l-0.89.11c-0.54.06-.85,0.24-0.81,0.66s0,0.93,0,1.4,0.54,0.93,1.41.9l2,0,2,0c0.87,0,1.38-.28,1.41-0.9s0-.93,0-1.4S286.1,65,285.56,65L285,64.91l-0.75-1.4c-1.66-4.22-2.85-8.63-5.07-12.62-0.78-1.4-1.6-2.78-2.39-4.17-0.57-1-1.47-.71-2.3-0.55a1.53,1.53,0,0,0-1.17,1.51c-0.3,1.63-.86,3.21-1.24,4.83s-0.73,3.15-1.09,4.73l-3.14.25a0.57,0.57,0,0,0-.44.33,13.4,13.4,0,0,0-.06,2.69,0.94,0.94,0,0,0,1.21.87l1.54-.18c-0.23,1-.47,2.07-0.69,3.1a4.8,4.8,0,0,1-.14.5h0.81l-1.22.06L268,65C267.45,65,267.13,65.21,267.17,65.64ZM274.06,57l1.53-6.9h0.29c1,2.16,2,4.33,2.81,6.55Z" transform="translate(-182.85 -39.54)"/><path class="cls-1" d="M199.13,42.71l1.22-.06,0.89-.11c0.54-.06.85-0.24,0.81-0.66s0-.93,0-1.4-0.54-.93-1.41-0.9l-2,0-2,0c-0.87,0-1.38.28-1.41,0.9s0,0.93,0,1.4,0.27,0.6.81,0.66l0.89,0.11,1.22,0.06h-1.31a69.28,69.28,0,0,1-5.29,14.72h-0.29L188,42.71h-1.27l1.22-.06,0.89-.11c0.54-.06.85-0.24,0.81-0.66s0-.93,0-1.4-0.54-.93-1.41-0.9l-2,0-2,0c-0.87,0-1.38.28-1.41,0.9s0,0.93,0,1.4,0.27,0.6.81,0.66l0.89,0.11,1.22,0.06H185a4.8,4.8,0,0,1,.14.5q1.3,5.91,2.68,11.79c0.38,1.62.94,3.2,1.24,4.83a1.53,1.53,0,0,0,1.17,1.51c0.82,0.16,1.73.45,2.3-.55,0.79-1.39,1.61-2.77,2.39-4.17,2.34-4.19,3.53-8.84,5.32-13.24a4.07,4.07,0,0,1,.33-0.67h-1.4Z" transform="translate(-182.85 -39.54)"/><path class="cls-1" d="M222.15,42.71h-1.4l1.22-.06,0.89-.11c0.54-.06.85-0.24,0.81-0.66s0-.93,0-1.4-0.54-.93-1.41-0.9l-2,0-2,0c-0.87,0-1.38.28-1.41,0.9s0,0.93,0,1.4,0.27,0.6.81,0.66l0.89,0.11,1.22,0.06h-1.31a69.28,69.28,0,0,1-5.29,14.72H212.9l-3.27-14.7h-1.27l1.22-.06,0.89-.11c0.54-.06.85-0.24,0.81-0.66s0-.93,0-1.4-0.54-.93-1.41-0.9l-2,0-2,0c-0.87,0-1.38.28-1.41,0.9s0,0.93,0,1.4,0.27,0.6.81,0.66l0.89,0.11,1.22,0.06h-0.81a4.81,4.81,0,0,1,.14.5Q208,49.12,209.39,55c0.38,1.62.94,3.2,1.24,4.83a1.53,1.53,0,0,0,1.17,1.51c0.82,0.16,1.73.45,2.3-.55,0.79-1.39,1.61-2.77,2.39-4.17,2.34-4.19,3.53-8.84,5.32-13.24A4.07,4.07,0,0,1,222.15,42.71Z" transform="translate(-182.85 -39.54)"/><path class="cls-1" d="M315.72,42.29c-0.05-1.05-.25-1.36-1.22-1.47-1.43-.17-2.86-0.3-4.29-0.44-2.75-.28-5.5-0.58-8.25-0.82a1,1,0,0,0-1.32.74,8.84,8.84,0,0,0,.06,2.27,0.62,0.62,0,0,0,.48.28l4.15,0.26c-0.28,4.77-.55,9.52-0.81,14,0,0.27,0,.52.07,0.75l-0.05.61a1.3,1.3,0,0,0,.82,1.63,1.79,1.79,0,0,0,.68.08,16.23,16.23,0,0,0,2.06-.15,0.79,0.79,0,0,0,.33-0.6c0.31-5.12.6-10.25,0.87-15.07,0-.27,0-0.52-0.07-0.75l0-.27,4,0.24c0.76-.08,1.28-0.11,1.8-0.2A0.88,0.88,0,0,0,315.72,42.29Z" transform="translate(-182.85 -39.54)"/><path class="cls-1" d="M314.39,58.7h0c-0.32.2-.74,0.48-1.17,0.79s-0.65.4-.95,0.57a13.82,13.82,0,0,1-9,.68,19.52,19.52,0,0,1-11.47-8.47c1.05,0,2.1,0,3.15,0a3.83,3.83,0,0,0,3.91-2.93,19.73,19.73,0,0,0,.9-4.22c0.1-3.19-.29-4.12-2.42-5a7.19,7.19,0,0,0-.82-0.27,7.3,7.3,0,0,0-2.28-.25c-2.52.15-5,.47-7.54,0.77a0.93,0.93,0,0,0-.94,1.3,5,5,0,0,1,0,1.44c-0.11,2.52-.21,5-0.34,7.57l0,0.08-0.08,7.77h-0.26c-0.87,0-1.38.26-1.4,0.84s0,0.87,0,1.3,0.27,0.56.81,0.62l0.89,0.1,1.69,0.07h0l1.69-.07,0.89-.1c0.54-.06.85-0.22,0.81-0.62s0-.86,0-1.3-0.54-.86-1.4-0.84h-0.54V54.65c0.47,0.37.94,0.75,1.39,1.14,1.62,1.41,3.14,2.94,4.83,4.26a24.87,24.87,0,0,0,4.82,3.12,16.78,16.78,0,0,0,8.27,1.39c2.59-.19,4.82-1,6.31-3.16h0s1.4-1.85.84-3Zm-25.22-9.64c0-1.85,0-3.73.15-5.56a5.45,5.45,0,0,1,1.83-.13c0.93,0,1.9-.07,2.85,0h0a1.69,1.69,0,0,1,1.43.78,6.06,6.06,0,0,1-.42,4.3,1.41,1.41,0,0,1-.9.77l-0.8.09A12.62,12.62,0,0,1,289.17,49.06Z" transform="translate(-182.85 -39.54)"/><path class="cls-1" d="M243.22,58.25c-0.34.27-.69,0.68-0.22,1.07a1.34,1.34,0,0,0,.77.11,2.93,2.93,0,0,0,1.23-.76l0.89-.72A2.8,2.8,0,0,0,243.22,58.25Z" transform="translate(-182.85 -39.54)"/><path class="cls-1" d="M252.84,53.48a3.3,3.3,0,0,0,1-.29c0.24-.13,1-0.75.81-1.13s-1.57.12-1.94,0.35a8.26,8.26,0,0,0-1.43,1.12A5.62,5.62,0,0,0,252.84,53.48Z" transform="translate(-182.85 -39.54)"/><path class="cls-1" d="M250.29,43.59a11.36,11.36,0,1,0,11.36,11.36A11.36,11.36,0,0,0,250.29,43.59Zm6.87,14.1a11.39,11.39,0,0,1-5,1.77,10.62,10.62,0,0,1-4.74-1L247,58.35c-0.35.29-.72,0.58-1.07,0.88a5.28,5.28,0,0,1-1.67,1.14c-1,.32-2.61-0.11-2.58-1.38s1.41-2.07,2.53-2.24a5.26,5.26,0,0,1,2.59.41l0.11-.1A33.31,33.31,0,0,0,249.43,54a7.68,7.68,0,0,1-3.52-3.65c-0.29-.6.6-1.13,0.9-0.52a6.75,6.75,0,0,0,3.29,3.38,6.18,6.18,0,0,1,3.7-2.3c1.2-.17,2.18.37,1.79,1.7a3.07,3.07,0,0,1-2.86,1.92,6,6,0,0,1-2.25-.15c-0.87,1-1.61,2.16-2.54,3.13l-0.07.06h0a9.58,9.58,0,0,0,4.15.85,10.22,10.22,0,0,0,4.62-1.64A0.52,0.52,0,0,1,257.16,57.69Zm1.54-7.42a0.59,0.59,0,0,1-.46,0,3.57,3.57,0,0,1-.33-0.15l-0.1,0c0,0.2.21,1.48,0.21,1.48a0.8,0.8,0,0,1,0,.45,1.26,1.26,0,0,1-.07.31,1.74,1.74,0,0,1-.32.61,1.17,1.17,0,0,1-.26.25,0.71,0.71,0,1,1-.93-1.08,1.09,1.09,0,0,1,.23-0.2,1.58,1.58,0,0,1,.42-0.2,2,2,0,0,1,.26-0.09,1.52,1.52,0,0,1,.26,0h0.12l-0.14-.47a4.45,4.45,0,0,1-.15-0.8h0a1.81,1.81,0,0,1,.1-0.93s0.17,0.07.39,0.2l0.22,0.13a1.09,1.09,0,0,0,.55.12h0.07a0.07,0.07,0,0,1,.07.08A0.38,0.38,0,0,1,258.69,50.28Z" transform="translate(-182.85 -39.54)"/></svg>