<svg id="icons" xmlns="http://www.w3.org/2000/svg" xmlns:xlink="http://www.w3.org/1999/xlink" viewBox="0 0 61.01 79.75"><defs><style>.cls-1,.cls-6{fill:none;}.cls-2,.cls-3{fill:#404041;}.cls-2{stroke:#000;stroke-width:0.09px;}.cls-2,.cls-6{stroke-miterlimit:10;}.cls-4{fill:#212120;opacity:0.36;}.cls-5{clip-path:url(#clip-path);}.cls-6{stroke:#768288;stroke-width:0.55px;}.cls-7{fill:#919fa5;}</style><clipPath id="clip-path" transform="translate(-319.19 -1289.44)"><circle id="SVGID" class="cls-1" cx="349.99" cy="1322.65" r="14.25" transform="translate(-997.42 1085.22) rotate(-65.18)"/></clipPath></defs><title>mic</title><circle class="cls-2" cx="349.99" cy="1322.65" r="14.25" transform="translate(-1316.61 -204.23) rotate(-65.18)"/><path class="cls-3" d="M355.23,1330.67c0-.07.11-0.2,0.14-0.27,1-2.2-1.45-5.54-5.54-7.43s-8.21-1.64-9.23.56c0,0.08-.11.25-0.14,0.33l-15.67,39.56,0.07,0c-0.35,1.49,1.32,3.64,4,4.87s5.4,1.12,6.3-.12l0.09,0Z" transform="translate(-319.19 -1289.44)"/><path class="cls-4" d="M349.74,1323.19c-4.08-1.89-8.21-1.64-9.23.56,0,0.08-.11.25-0.14,0.33l-15.67,39.56,0.08,0" transform="translate(-319.19 -1289.44)"/><g class="cls-5"><rect class="cls-6" x="328.47" y="1296.13" width="42.45" height="53.02" transform="translate(-825.1 -1034.32) rotate(-23.9)"/><line class="cls-6" x1="1.3" y1="17.44" x2="22.79" y2="65.91"/><line class="cls-6" x1="1.97" y1="17.15" x2="23.45" y2="65.61"/><line class="cls-6" x1="2.8" y1="16.78" x2="24.28" y2="65.25"/><line class="cls-6" x1="3.64" y1="16.41" x2="25.12" y2="64.88"/><line class="cls-6" x1="4.3" y1="16.11" x2="25.78" y2="64.58"/><line class="cls-6" x1="5.14" y1="15.74" x2="26.62" y2="64.21"/><line class="cls-6" x1="5.97" y1="15.37" x2="27.45" y2="63.84"/><line class="cls-6" x1="6.63" y1="15.08" x2="28.12" y2="63.55"/><line class="cls-6" x1="7.47" y1="14.71" x2="28.95" y2="63.18"/><line class="cls-6" x1="8.3" y1="14.34" x2="29.78" y2="62.81"/><line class="cls-6" x1="8.97" y1="14.05" x2="30.45" y2="62.51"/><line class="cls-6" x1="9.8" y1="13.68" x2="31.28" y2="62.15"/><line class="cls-6" x1="10.63" y1="13.31" x2="32.11" y2="61.78"/><line class="cls-6" x1="11.3" y1="13.01" x2="32.78" y2="61.48"/><line class="cls-6" x1="12.13" y1="12.64" x2="33.61" y2="61.11"/><line class="cls-6" x1="12.96" y1="12.27" x2="34.44" y2="60.74"/><line class="cls-6" x1="13.63" y1="11.98" x2="35.11" y2="60.45"/><line class="cls-6" x1="14.46" y1="11.61" x2="35.94" y2="60.08"/><line class="cls-6" x1="15.3" y1="11.24" x2="36.78" y2="59.71"/><line class="cls-6" x1="15.96" y1="10.94" x2="37.44" y2="59.41"/><line class="cls-6" x1="16.79" y1="10.58" x2="38.28" y2="59.05"/><line class="cls-6" x1="17.63" y1="10.21" x2="39.11" y2="58.68"/><line class="cls-6" x1="18.29" y1="9.91" x2="39.77" y2="58.38"/><line class="cls-6" x1="19.13" y1="9.54" x2="40.61" y2="58.01"/><line class="cls-6" x1="19.96" y1="9.17" x2="41.44" y2="57.64"/><line class="cls-6" x1="20.29" y1="9.03" x2="41.77" y2="57.49"/><line class="cls-6" x1="21.12" y1="8.66" x2="42.61" y2="57.13"/><line class="cls-6" x1="21.79" y1="8.36" x2="43.27" y2="56.83"/><line class="cls-6" x1="22.62" y1="7.99" x2="44.1" y2="56.46"/><line class="cls-6" x1="23.46" y1="7.62" x2="44.94" y2="56.09"/><line class="cls-6" x1="24.12" y1="7.33" x2="45.6" y2="55.8"/><line class="cls-6" x1="24.96" y1="6.96" x2="46.44" y2="55.43"/><line class="cls-6" x1="25.79" y1="6.59" x2="47.27" y2="55.06"/><line class="cls-6" x1="26.45" y1="6.29" x2="47.94" y2="54.76"/><line class="cls-6" x1="27.29" y1="5.93" x2="48.77" y2="54.39"/><line class="cls-6" x1="28.12" y1="5.56" x2="49.6" y2="54.03"/><line class="cls-6" x1="28.79" y1="5.26" x2="50.27" y2="53.73"/><line class="cls-6" x1="29.62" y1="4.89" x2="51.1" y2="53.36"/><line class="cls-6" x1="30.45" y1="4.52" x2="51.93" y2="52.99"/><line class="cls-6" x1="31.12" y1="4.23" x2="52.6" y2="52.7"/><line class="cls-6" x1="31.95" y1="3.86" x2="53.43" y2="52.33"/><line class="cls-6" x1="32.78" y1="3.49" x2="54.27" y2="51.96"/><line class="cls-6" x1="33.45" y1="3.19" x2="54.93" y2="51.66"/><line class="cls-6" x1="34.28" y1="2.82" x2="55.76" y2="51.29"/><line class="cls-6" x1="35.12" y1="2.46" x2="56.6" y2="50.93"/><line class="cls-6" x1="35.78" y1="2.16" x2="57.26" y2="50.63"/><line class="cls-6" x1="36.62" y1="1.79" x2="58.1" y2="50.26"/><line class="cls-6" x1="37.45" y1="1.42" x2="58.93" y2="49.89"/><line class="cls-6" x1="38.11" y1="1.13" x2="59.6" y2="49.6"/><line class="cls-6" x1="38.95" y1="0.76" x2="60.43" y2="49.23"/><line class="cls-6" x1="60.68" y1="48.22" x2="21.87" y2="65.42"/><line class="cls-6" x1="60.24" y1="47.22" x2="21.43" y2="64.42"/><line class="cls-6" x1="59.79" y1="46.22" x2="20.98" y2="63.42"/><line class="cls-6" x1="59.42" y1="45.39" x2="20.62" y2="62.59"/><line class="cls-6" x1="58.98" y1="44.39" x2="20.17" y2="61.59"/><line class="cls-6" x1="58.54" y1="43.39" x2="19.73" y2="60.59"/><line class="cls-6" x1="58.1" y1="42.39" x2="19.29" y2="59.59"/><line class="cls-6" x1="57.65" y1="41.39" x2="18.84" y2="58.59"/><line class="cls-6" x1="57.28" y1="40.56" x2="18.47" y2="57.76"/><line class="cls-6" x1="56.84" y1="39.56" x2="18.03" y2="56.76"/><line class="cls-6" x1="56.4" y1="38.56" x2="17.59" y2="55.76"/><line class="cls-6" x1="55.95" y1="37.56" x2="17.15" y2="54.76"/><line class="cls-6" x1="55.51" y1="36.56" x2="16.7" y2="53.76"/><line class="cls-6" x1="55.07" y1="35.56" x2="16.26" y2="52.76"/><line class="cls-6" x1="54.7" y1="34.73" x2="15.89" y2="51.93"/><line class="cls-6" x1="54.26" y1="33.73" x2="15.45" y2="50.93"/><line class="cls-6" x1="53.81" y1="32.73" x2="15" y2="49.93"/><line class="cls-6" x1="53.37" y1="31.73" x2="14.56" y2="48.93"/><line class="cls-6" x1="52.93" y1="30.73" x2="14.12" y2="47.93"/><line class="cls-6" x1="52.56" y1="29.9" x2="13.75" y2="47.1"/><line class="cls-6" x1="52.12" y1="28.9" x2="13.31" y2="46.1"/><line class="cls-6" x1="51.67" y1="27.9" x2="12.86" y2="45.1"/><line class="cls-6" x1="51.23" y1="26.9" x2="12.42" y2="44.1"/><line class="cls-6" x1="50.79" y1="25.9" x2="11.98" y2="43.1"/><line class="cls-6" x1="50.34" y1="24.9" x2="11.54" y2="42.1"/><line class="cls-6" x1="50.2" y1="24.57" x2="11.39" y2="41.77"/><line class="cls-6" x1="49.75" y1="23.57" x2="10.94" y2="40.77"/><line class="cls-6" x1="49.31" y1="22.57" x2="10.5" y2="39.77"/><line class="cls-6" x1="48.87" y1="21.57" x2="10.06" y2="38.77"/><line class="cls-6" x1="48.42" y1="20.57" x2="9.62" y2="37.77"/><line class="cls-6" x1="47.98" y1="19.57" x2="9.17" y2="36.77"/><line class="cls-6" x1="47.61" y1="18.74" x2="8.8" y2="35.94"/><line class="cls-6" x1="47.17" y1="17.74" x2="8.36" y2="34.94"/><line class="cls-6" x1="46.73" y1="16.74" x2="7.92" y2="33.94"/><line class="cls-6" x1="46.28" y1="15.74" x2="7.48" y2="32.94"/><line class="cls-6" x1="45.84" y1="14.74" x2="7.03" y2="31.94"/><line class="cls-6" x1="45.4" y1="13.74" x2="6.59" y2="30.94"/><line class="cls-6" x1="45.03" y1="12.91" x2="6.22" y2="30.11"/><line class="cls-6" x1="44.59" y1="11.91" x2="5.78" y2="29.11"/><line class="cls-6" x1="44.14" y1="10.91" x2="5.33" y2="28.11"/><line class="cls-6" x1="43.7" y1="9.91" x2="4.89" y2="27.11"/><line class="cls-6" x1="43.26" y1="8.91" x2="4.45" y2="26.11"/><line class="cls-6" x1="42.89" y1="8.08" x2="4.08" y2="25.28"/><line class="cls-6" x1="42.45" y1="7.08" x2="3.64" y2="24.28"/><line class="cls-6" x1="42" y1="6.08" x2="3.19" y2="23.28"/><line class="cls-6" x1="41.56" y1="5.08" x2="2.75" y2="22.28"/><line class="cls-6" x1="41.12" y1="4.08" x2="2.31" y2="21.28"/><line class="cls-6" x1="40.67" y1="3.08" x2="1.87" y2="20.28"/><line class="cls-6" x1="40.31" y1="2.25" x2="1.5" y2="19.45"/><line class="cls-6" x1="39.86" y1="1.25" x2="1.05" y2="18.45"/></g><path class="cls-7" d="M363.39,1327.61a14.4,14.4,0,0,0,.61-1.54c-1.08.46-6.47-1.27-12.8-4.14l-0.72-.34-0.73-.33c-6.28-3-11.1-5.94-11.45-7.07a14.29,14.29,0,0,0-1.36,2.93,0.31,0.31,0,0,0-.16.15,0.36,0.36,0,0,0,0,.3c0.53,1.22,5.63,4.33,12.15,7.34s12.19,4.89,13.46,4.5a0.36,0.36,0,0,0,.24-0.18,0.31,0.31,0,0,0,0-.22A14.4,14.4,0,0,0,363.39,1327.61Z" transform="translate(-319.19 -1289.44)"/><path class="cls-7" d="M363.35,1328.68a15.66,15.66,0,0,0,.64-1.62c-1.11.5-6.59-1.24-13-4.15l-0.73-.34-0.74-.34c-6.37-3-11.24-6-11.58-7.22a15.54,15.54,0,0,0-1.43,3.08,0.33,0.33,0,0,0-.17.16,0.38,0.38,0,0,0,0,.31c0.52,1.26,5.69,4.44,12.3,7.5s12.38,4.94,13.68,4.51a0.38,0.38,0,0,0,.25-0.19,0.33,0.33,0,0,0,0-.23A15.67,15.67,0,0,0,363.35,1328.68Z" transform="translate(-319.19 -1289.44)"/></svg>