<svg id="Layer_9" data-name="Layer 9" xmlns="http://www.w3.org/2000/svg" viewBox="0 0 110.47 82.39"><defs><style>.cls-1{fill:#438cae;}.cls-2,.cls-5{fill:#fff;}.cls-2,.cls-4,.cls-6,.cls-7,.cls-8,.cls-9{fill-rule:evenodd;}.cls-3,.cls-9{fill:#0a142b;}.cls-4{fill:#c4c6c2;}.cls-6{fill:#d1c76b;}.cls-8{fill:#e9897c;}</style></defs><title>rony</title><ellipse class="cls-1" cx="62.23" cy="75.89" rx="48.23" ry="6.5"/><path class="cls-2" d="M1012.22,588c0-3-5.83-8.39-5.83-8.39s-4.85,5.39-4.85,8.39C1001.53,592,1012.22,592,1012.22,588Z" transform="translate(-916.99 -579.61)"/><ellipse class="cls-3" cx="90.52" cy="4.69" rx="0.45" ry="0.5"/><path class="cls-2" d="M1004.92,620.18l-29-9.07s-6.63,9.07-27.92,0l-9.77,15s26.87,18.15,42.92,14.31C981.19,640.42,1000.73,638.68,1004.92,620.18Z" transform="translate(-916.99 -579.61)"/><path class="cls-4" d="M978.05,636.24s17.41-1.56,22.88-17.3l4,1.25c-4.19,18.49-23.73,20.24-23.73,20.24-16.05,3.84-42.92-14.31-42.92-14.31l1-1.58C947.47,629.41,965.87,639.15,978.05,636.24Z" transform="translate(-916.99 -579.61)"/><path class="cls-2" d="M1022.72,649s-2.79-22-18.84-26.88l-2.06,4.2s13.92,1.68,13.92,22.68h7Z" transform="translate(-916.99 -579.61)"/><path class="cls-2" d="M1003.87,657s3.65-18.31-5-26.95l-3.74,4.7s8.72,5.15,3.14,20.15Z" transform="translate(-916.99 -579.61)"/><path class="cls-2" d="M918,636.41s20.66,7,31.92-4.29L946,630s-8,8.11-28,2.17v4.19Z" transform="translate(-916.99 -579.61)"/><path class="cls-2" d="M917,616s7,7.54,24,7.54v3.65s-15.63,3.08-24-5.23v-6Z" transform="translate(-916.99 -579.61)"/><ellipse class="cls-5" cx="83.39" cy="16.5" rx="3.66" ry="4.01"/><path class="cls-2" d="M1000.66,584.32c14.29,0,13.63,15.91,13.63,15.91s8.64,5.65,5.65,11.3-13.63,3.19-13.63,3.19l-6.32-2.21v2.33l-20.61-4S970.41,584.32,1000.66,584.32Z" transform="translate(-916.99 -579.61)"/><path class="cls-4" d="M1017.32,611.53c3-5.65-5.65-11.3-5.65-11.3S1012.3,585,999,584.35c0.55,0,1.12,0,1.7,0,14.29,0,13.63,15.91,13.63,15.91s8.64,5.65,5.65,11.3c-1.84,3.47-6.48,3.88-9.79,3.68C1013,615,1015.94,614.15,1017.32,611.53Z" transform="translate(-916.99 -579.61)"/><polygon class="cls-4" points="81 32.9 83 33.85 83 35.23 81 34.73 81 32.9"/><rect class="cls-3" x="976.48" y="610.33" width="31.41" height="5.93" transform="translate(837.19 916.81) rotate(-162.51)"/><path class="cls-6" d="M999.05,620.86a1.86,1.86,0,0,1-.59-1.36,1.67,1.67,0,0,1,1.87-1.62c1,0,1.87.11,1.87,2.11h4.92c0-2,.84-2.11,1.87-2.11a1.76,1.76,0,0,1,1.87,1.74,1.72,1.72,0,0,1-.59,1.3,1.79,1.79,0,0,1,.59,1.33,2,2,0,0,1-1.87,2,1.56,1.56,0,0,1-1.79-1.24h-5.06a1.55,1.55,0,0,1-1.79,1.22,1.93,1.93,0,0,1-1.87-1.93A2,2,0,0,1,999.05,620.86Z" transform="translate(-916.99 -579.61)"/><path class="cls-7" d="M1014.88,603.06c-1,1,2.44,6.63,3.83,6.63s4.86-5.61,3.83-6.63S1015.89,602,1014.88,603.06Z" transform="translate(-916.99 -579.61)"/><path class="cls-2" d="M991.3,584.84c-3-2.88-10.71-1.63-10.71-1.63s0.64,7.69,2.92,9.85S994,587.37,991.3,584.84Z" transform="translate(-916.99 -579.61)"/><path class="cls-8" d="M981.47,584.4s10.36,0.32,9.61,3.29-4.87,5.14-4.87,5.14S980.05,585.89,981.47,584.4Z" transform="translate(-916.99 -579.61)"/><path class="cls-9" d="M982.71,592.31c1.44,2.69,5,.47,5.65-0.94,1.93-4-.59-2.07-1.75-3.17a2.86,2.86,0,0,0-4,.07C981.48,589.4,982,590.9,982.71,592.31Z" transform="translate(-916.99 -579.61)"/><ellipse class="cls-3" cx="984.11" cy="585.99" rx="0.87" ry="1.15" transform="translate(-1035.16 317.56) rotate(-46.54)"/><circle cx="95.17" cy="16.41" r="1.83"/><circle cx="87.84" cy="18.5" r="1.83"/></svg>