<svg id="icons" xmlns="http://www.w3.org/2000/svg" viewBox="0 0 130.8 130.8"><defs><style>.cls-1{fill:#5ec7cd;}.cls-2{fill:#f6f4bd;}.cls-3{fill:#d1cea0;}.cls-4{fill:#dcd9ae;}.cls-5{fill:#e76972;}.cls-6{fill:#a8545f;}.cls-7{fill:#b25d6b;}.cls-8{fill:#994751;}.cls-9{fill:#ed6f7f;}</style></defs><title>surprise</title><rect class="cls-1" x="937.87" y="1769.34" width="92.49" height="92.49" transform="translate(-1914.29 -522.54) rotate(-45)"/><polygon class="cls-2" points="65.03 38.13 30.37 51.23 65.55 68.74 66.28 68.63 66.28 49.39 66.28 68.63 101.44 51.06 65.03 38.13"/><polygon class="cls-3" points="66.28 68.61 66.28 105.79 101.28 88.24 101.28 51.05 66.28 68.61"/><polygon class="cls-4" points="30.28 51.22 66.28 68.59 66.28 105.78 30.28 88.4 30.28 51.22"/><polygon class="cls-5" points="44.07 46.05 78.97 62.15 88.04 57.41 53.49 42.49 44.07 46.05"/><polygon class="cls-6" points="79.28 62.19 88.28 57.41 88.28 94.69 79.28 99.09 79.28 62.19"/><polygon class="cls-5" points="53.65 62.94 85.3 45.43 75.55 41.92 44.07 58.15 53.65 62.94"/><polygon class="cls-7" points="53.45 100.04 53.81 62.97 44.28 58.15 44.28 95.46 53.45 100.04"/><path class="cls-8" d="M979.62,1803.67s15.65,8.92,15.65,5.35C995.26,1809,997,1802.52,979.62,1803.67Z" transform="translate(-918.71 -1750.19)"/><path class="cls-9" d="M995.26,1809l8.78-4.12s1.45-6-15.65-5.35l-8.78,4.12S996.25,1802,995.26,1809Z" transform="translate(-918.71 -1750.19)"/><path class="cls-8" d="M980.22,1804.16s-15.07-5.71-9.8-7.7C970.42,1796.45,972.2,1794.33,980.22,1804.16Z" transform="translate(-918.71 -1750.19)"/><path class="cls-9" d="M970.14,1796.18l7.15-2.7s3-1.09,10.45,6.38l-7.8,4S973.71,1796.18,970.14,1796.18Z" transform="translate(-918.71 -1750.19)"/></svg>