<svg id="icons" xmlns="http://www.w3.org/2000/svg" viewBox="0 0 130.8 130.8"><defs><style>.cls-1{fill:#252c37;}.cls-2{fill:#ffda7c;}.cls-3{fill:#fff;}</style></defs><title>ticket</title><rect class="cls-1" x="481.87" y="1288.34" width="92.49" height="92.49" transform="translate(-1251.73 -504.87) rotate(-45)"/><path class="cls-2" d="M553.86,1306.61a5.79,5.79,0,0,1-7.87-2.53,1.39,1.39,0,0,1-.13-0.3l-27.15,13.49-27.15,13.49a1.39,1.39,0,0,1,.16.28,5.79,5.79,0,0,1-2.73,7.8l-0.42.21L499,1360.12l0.42-.21a6.17,6.17,0,0,1,8.06,2.92c0.07,0.14.33,0.69,0.32,0.69L535,1350l27.15-13.49s-0.29-.53-0.36-0.67a6.17,6.17,0,0,1,2.54-8.19l-0.13.07-10.47-21.07Z" transform="translate(-462.71 -1269.19)"/><path class="cls-3" d="M511.66,1345.42l-2.43,1.21-3.48-7-2.19,1.09-1-2,6.81-3.38,1,2-2.19,1.09Z" transform="translate(-462.71 -1269.19)"/><path class="cls-3" d="M515.14,1343.7l-4.47-9,2.44-1.21,4.47,9Z" transform="translate(-462.71 -1269.19)"/><path class="cls-3" d="M520,1332.41a1.73,1.73,0,0,0-1,1.38,3.83,3.83,0,0,0,.49,2.2q1.29,2.59,3.26,1.61a4.6,4.6,0,0,0,1.07-.74,12.92,12.92,0,0,0,.93-1l1,2.05a6.94,6.94,0,0,1-2.3,1.76,4.49,4.49,0,0,1-3.71.37,5.43,5.43,0,0,1-2.78-2.87,6.07,6.07,0,0,1-.69-2.71,4.21,4.21,0,0,1,.7-2.38,5.11,5.11,0,0,1,2-1.72,7.14,7.14,0,0,1,3.1-.75l0.21,2.28a9.6,9.6,0,0,0-1.19.1A3.92,3.92,0,0,0,520,1332.41Z" transform="translate(-462.71 -1269.19)"/><path class="cls-3" d="M535.36,1333.64l-2.74,1.36-3.48-2.55-0.5.79,1.49,3-2.44,1.21-4.47-9,2.44-1.21,1.94,3.9a12,12,0,0,1,.17-1.52l0.52-3.69,2.65-1.32-0.83,5.43Z" transform="translate(-462.71 -1269.19)"/><path class="cls-3" d="M541.67,1330.51l-5.33,2.65-4.47-9,5.33-2.65,1,1.95-2.91,1.44,0.7,1.41,2.69-1.34,1,1.95-2.69,1.34,0.84,1.7,2.91-1.44Z" transform="translate(-462.71 -1269.19)"/><path class="cls-3" d="M547.2,1327.76l-2.43,1.21-3.48-7-2.19,1.09-1-2,6.81-3.38,1,2-2.19,1.09Z" transform="translate(-462.71 -1269.19)"/><path class="cls-3" d="M507.44,1356.92a2,2,0,0,1-1.77-1.09l-9.45-19a2,2,0,0,1,.89-2.64l47.48-23.59a2,2,0,0,1,2.64.89l9.45,19a2,2,0,0,1-.89,2.64l-47.48,23.59A2,2,0,0,1,507.44,1356.92Zm38-45.07a0.49,0.49,0,0,0-.21,0l-47.48,23.59a0.5,0.5,0,0,0-.22.66l9.45,19a0.5,0.5,0,0,0,.66.22l47.48-23.59a0.5,0.5,0,0,0,.22-0.66l-9.45-19A0.5,0.5,0,0,0,545.46,1311.85Z" transform="translate(-462.71 -1269.19)"/></svg>