<svg id="icons" xmlns="http://www.w3.org/2000/svg" viewBox="0 0 75.75 59.75"><defs><style>.cls-1{fill:#ffda7c;}.cls-2{font-size:14.05px;fill:#fff;font-family:Open Sans;font-weight:700;}.cls-3{fill:none;stroke:#fff;stroke-miterlimit:10;stroke-width:1.48px;}</style></defs><title>ticket</title><path class="cls-1" d="M689.86,1308.61a5.79,5.79,0,0,1-7.87-2.53,1.39,1.39,0,0,1-.13-0.3l-27.15,13.49-27.15,13.49a1.39,1.39,0,0,1,.16.28,5.79,5.79,0,0,1-2.73,7.8l-0.42.21L635,1362.12l0.42-.21a6.17,6.17,0,0,1,8.06,2.92c0.07,0.14.33,0.69,0.32,0.69L671,1352l27.15-13.49s-0.29-.53-0.36-0.67a6.17,6.17,0,0,1,2.54-8.19l-0.13.07-10.47-21.07Z" transform="translate(-624.58 -1305.77)"/><text class="cls-2" transform="matrix(0.9, -0.45, 0.45, 0.9, 18.5, 44.28)">TICKET</text><rect class="cls-3" x="635.03" y="1323.91" width="55.48" height="23.7" rx="1.23" ry="1.23" transform="translate(-1149.78 -871.25) rotate(-26.43)"/></svg>